<?xml version="1.0" encoding="UTF-8" standalone="no"?>
<!DOCTYPE svg PUBLIC "-//W3C//DTD SVG 1.1//EN"
 "http://www.w3.org/Graphics/SVG/1.1/DTD/svg11.dtd">
<!-- Generated by graphviz version 2.43.0 (0)
 -->
<!-- Title: G Pages: 1 -->
<svg width="949pt" height="315pt"
 viewBox="0.00 0.00 949.00 315.14" xmlns="http://www.w3.org/2000/svg" xmlns:xlink="http://www.w3.org/1999/xlink">
<g id="graph0" class="graph" transform="scale(1 1) rotate(0) translate(4 311.14)">
<title>G</title>
<polygon fill="white" stroke="transparent" points="-4,4 -4,-311.14 945,-311.14 945,4 -4,4"/>
<!-- s -->
<g id="node1" class="node">
<title>s</title>
<ellipse fill="black" stroke="black" cx="177" cy="-149.14" rx="18" ry="18"/>
<text text-anchor="middle" x="177" y="-145.44" font-family="Arial" font-size="14.00">s</text>
</g>
<!-- Reset -->
<g id="node2" class="node">
<title>Reset</title>
<polygon fill="#ffbb33" stroke="red" points="445,-167.14 391,-167.14 391,-131.14 445,-131.14 445,-167.14"/>
<text text-anchor="middle" x="418" y="-145.44" font-family="Arial" font-size="14.00">Reset</text>
</g>
<!-- s&#45;&gt;Reset -->
<g id="edge1" class="edge">
<title>s&#45;&gt;Reset</title>
<path fill="none" stroke="black" d="M195.19,-149.14C233.84,-149.14 328.31,-149.14 380.64,-149.14"/>
<polygon fill="black" stroke="black" points="380.82,-152.64 390.82,-149.14 380.82,-145.64 380.82,-152.64"/>
</g>
<!-- Off -->
<g id="node6" class="node">
<title>Off</title>
<polygon fill="#ffbb33" stroke="red" points="652,-168.14 500,-168.14 500,-130.14 652,-130.14 652,-168.14"/>
<text text-anchor="middle" x="576" y="-152.94" font-family="Arial" font-size="14.00">Off</text>
<text text-anchor="middle" x="576" y="-137.94" font-family="Arial" font-size="14.00">[_] / mm_to_off_action</text>
</g>
<!-- Reset&#45;&gt;Off -->
<g id="edge5" class="edge">
<title>Reset&#45;&gt;Off</title>
<path fill="none" stroke="blue" d="M445.11,-149.14C457.68,-149.14 473.54,-149.14 489.82,-149.14"/>
<polygon fill="blue" stroke="blue" points="489.99,-152.64 499.99,-149.14 489.99,-145.64 489.99,-152.64"/>
<text text-anchor="middle" x="472.5" y="-152.94" font-family="Arial" font-size="14.00">Init</text>
</g>
<!-- AutoOn -->
<g id="node3" class="node">
<title>AutoOn</title>
<polygon fill="#ffbb33" stroke="red" points="922,-282.14 787,-282.14 787,-244.14 922,-244.14 922,-282.14"/>
<text text-anchor="middle" x="854.5" y="-266.94" font-family="Arial" font-size="14.00">AutoOn</text>
<text text-anchor="middle" x="854.5" y="-251.94" font-family="Arial" font-size="14.00">[_] / auto_on_action</text>
</g>
<!-- AutoOn&#45;&gt;Off -->
<g id="edge6" class="edge">
<title>AutoOn&#45;&gt;Off</title>
<path fill="none" stroke="blue" d="M786.6,-259.66C742.83,-256.52 690.16,-250.86 670,-241.14 639.66,-226.5 613.26,-197.94 596.42,-176.51"/>
<polygon fill="blue" stroke="blue" points="599.08,-174.22 590.23,-168.4 593.52,-178.47 599.08,-174.22"/>
<text text-anchor="middle" x="710" y="-258.94" font-family="Arial" font-size="14.00">TimerCheck</text>
</g>
<!-- AutoOn&#45;&gt;Off -->
<g id="edge7" class="edge">
<title>AutoOn&#45;&gt;Off</title>
<path fill="none" stroke="blue" d="M807.07,-243.99C758.96,-224.16 683.78,-193.16 632.55,-172.04"/>
<polygon fill="blue" stroke="blue" points="633.86,-168.79 623.28,-168.22 631.19,-175.27 633.86,-168.79"/>
<text text-anchor="middle" x="710" y="-222.94" font-family="Arial" font-size="14.00">Off</text>
</g>
<!-- ManualColor -->
<g id="node4" class="node">
<title>ManualColor</title>
<polygon fill="#ffbb33" stroke="red" points="938.5,-168.14 770.5,-168.14 770.5,-130.14 938.5,-130.14 938.5,-168.14"/>
<text text-anchor="middle" x="854.5" y="-152.94" font-family="Arial" font-size="14.00">ManualColor</text>
<text text-anchor="middle" x="854.5" y="-137.94" font-family="Arial" font-size="14.00">[_] / manual_color_action</text>
</g>
<!-- ManualColor&#45;&gt;Off -->
<g id="edge8" class="edge">
<title>ManualColor&#45;&gt;Off</title>
<path fill="none" stroke="blue" d="M770.46,-146.52C763.54,-146.36 756.65,-146.23 750,-146.14 714.45,-145.62 705.55,-145.56 670,-146.14 667.46,-146.18 664.87,-146.23 662.27,-146.28"/>
<polygon fill="blue" stroke="blue" points="662.04,-142.78 652.12,-146.51 662.19,-149.78 662.04,-142.78"/>
<text text-anchor="middle" x="710" y="-149.94" font-family="Arial" font-size="14.00">Off</text>
</g>
<!-- ManualColor&#45;&gt;Off -->
<g id="edge9" class="edge">
<title>ManualColor&#45;&gt;Off</title>
<path fill="none" stroke="blue" d="M776.66,-130.12C767.72,-128.48 758.69,-127.09 750,-126.14 714.66,-122.26 705.29,-121.84 670,-126.14 665.47,-126.69 660.83,-127.39 656.18,-128.19"/>
<polygon fill="blue" stroke="blue" points="655.15,-124.83 645.98,-130.12 656.45,-131.71 655.15,-124.83"/>
<text text-anchor="middle" x="710" y="-129.94" font-family="Arial" font-size="14.00">TimerCheck</text>
</g>
<!-- ManualMode -->
<g id="node5" class="node">
<title>ManualMode</title>
<polygon fill="#ffbb33" stroke="red" points="941,-54.14 768,-54.14 768,-16.14 941,-16.14 941,-54.14"/>
<text text-anchor="middle" x="854.5" y="-38.94" font-family="Arial" font-size="14.00">ManualMode</text>
<text text-anchor="middle" x="854.5" y="-23.94" font-family="Arial" font-size="14.00">[_] / manual_mode_action</text>
</g>
<!-- ManualMode&#45;&gt;Off -->
<g id="edge10" class="edge">
<title>ManualMode&#45;&gt;Off</title>
<path fill="none" stroke="blue" d="M767.94,-30.71C735.87,-32.17 699.97,-37.68 670,-52.14 638.14,-67.51 611.39,-98.7 594.88,-121.58"/>
<polygon fill="blue" stroke="blue" points="591.93,-119.69 589.07,-129.89 597.67,-123.7 591.93,-119.69"/>
<text text-anchor="middle" x="710" y="-55.94" font-family="Arial" font-size="14.00">TimerCheck</text>
</g>
<!-- ManualMode&#45;&gt;Off -->
<g id="edge11" class="edge">
<title>ManualMode&#45;&gt;Off</title>
<path fill="none" stroke="blue" d="M808.99,-16.06C770.11,-2.48 713.28,9.7 670,-13.14 627.24,-35.7 600.41,-87.75 587.11,-120.52"/>
<polygon fill="blue" stroke="blue" points="583.77,-119.42 583.41,-130.01 590.3,-121.96 583.77,-119.42"/>
<text text-anchor="middle" x="710" y="-16.94" font-family="Arial" font-size="14.00">Off</text>
</g>
<!-- Off&#45;&gt;AutoOn -->
<g id="edge4" class="edge">
<title>Off&#45;&gt;AutoOn</title>
<path fill="none" stroke="blue" d="M583.96,-168.17C596.11,-198.23 624.34,-255.66 670,-279.14 707.07,-298.2 753.97,-293.7 791.07,-284.69"/>
<polygon fill="blue" stroke="blue" points="791.96,-288.08 800.77,-282.18 790.21,-281.3 791.96,-288.08"/>
<text text-anchor="middle" x="710" y="-295.94" font-family="Arial" font-size="14.00">AutoOn</text>
</g>
<!-- Off&#45;&gt;ManualColor -->
<g id="edge2" class="edge">
<title>Off&#45;&gt;ManualColor</title>
<path fill="none" stroke="blue" d="M652.23,-163.2C658.23,-163.98 664.21,-164.64 670,-165.14 705.43,-168.16 714.55,-167.86 750,-165.14 753.31,-164.88 756.67,-164.58 760.06,-164.25"/>
<polygon fill="blue" stroke="blue" points="760.74,-167.69 770.31,-163.13 759.99,-160.73 760.74,-167.69"/>
<text text-anchor="middle" x="710" y="-170.94" font-family="Arial" font-size="14.00">ManualColor</text>
</g>
<!-- Off&#45;&gt;ManualMode -->
<g id="edge3" class="edge">
<title>Off&#45;&gt;ManualMode</title>
<path fill="none" stroke="blue" d="M613.25,-130.11C630.28,-121.46 650.98,-111.34 670,-103.14 708.5,-86.54 752.52,-70.14 787.79,-57.61"/>
<polygon fill="blue" stroke="blue" points="789.23,-60.81 797.5,-54.18 786.9,-54.21 789.23,-60.81"/>
<text text-anchor="middle" x="710" y="-106.94" font-family="Arial" font-size="14.00">ManualMode</text>
</g>
<!-- Init -->
<g id="node7" class="node">
<title>Init</title>
<polygon fill="none" stroke="black" points="229,-223.14 125,-223.14 125,-185.14 229,-185.14 229,-223.14"/>
<text text-anchor="middle" x="177" y="-207.94" font-family="Arial" font-size="14.00">Init</text>
<text text-anchor="middle" x="177" y="-192.94" font-family="Arial" font-size="14.00">[_] / init_action</text>
</g>
<!-- TimerCheck -->
<g id="node8" class="node">
<title>TimerCheck</title>
<polygon fill="none" stroke="black" points="354,-279.14 0,-279.14 0,-241.14 354,-241.14 354,-279.14"/>
<text text-anchor="middle" x="177" y="-263.94" font-family="Arial" font-size="14.00">TimerCheck</text>
<text text-anchor="middle" x="177" y="-248.94" font-family="Arial" font-size="14.00">[manual_mode_timer_check_guard] / mm_to_off_action</text>
</g>
</g>
</svg>
