<?xml version="1.0" encoding="UTF-8" standalone="no"?>
<!DOCTYPE svg PUBLIC "-//W3C//DTD SVG 1.1//EN"
 "http://www.w3.org/Graphics/SVG/1.1/DTD/svg11.dtd">
<!-- Generated by graphviz version 2.43.0 (0)
 -->
<!-- Title: G Pages: 1 -->
<svg width="987pt" height="388pt"
 viewBox="0.00 0.00 987.00 388.02" xmlns="http://www.w3.org/2000/svg" xmlns:xlink="http://www.w3.org/1999/xlink">
<g id="graph0" class="graph" transform="scale(1 1) rotate(0) translate(4 384.02)">
<title>G</title>
<polygon fill="white" stroke="transparent" points="-4,4 -4,-384.02 983,-384.02 983,4 -4,4"/>
<!-- s -->
<g id="node1" class="node">
<title>s</title>
<ellipse fill="black" stroke="black" cx="153.5" cy="-138.02" rx="18" ry="18"/>
<text text-anchor="middle" x="153.5" y="-134.32" font-family="Arial" font-size="14.00">s</text>
</g>
<!-- Reset -->
<g id="node2" class="node">
<title>Reset</title>
<polygon fill="#ffbb33" stroke="red" points="398,-156.02 344,-156.02 344,-120.02 398,-120.02 398,-156.02"/>
<text text-anchor="middle" x="371" y="-134.32" font-family="Arial" font-size="14.00">Reset</text>
</g>
<!-- s&#45;&gt;Reset -->
<g id="edge1" class="edge">
<title>s&#45;&gt;Reset</title>
<path fill="none" stroke="black" d="M171.77,-138.02C206.78,-138.02 286.75,-138.02 333.72,-138.02"/>
<polygon fill="black" stroke="black" points="333.78,-141.52 343.78,-138.02 333.78,-134.52 333.78,-141.52"/>
</g>
<!-- Off -->
<g id="node5" class="node">
<title>Off</title>
<polygon fill="#ffbb33" stroke="red" points="629,-157.02 453,-157.02 453,-119.02 629,-119.02 629,-157.02"/>
<text text-anchor="middle" x="541" y="-141.82" font-family="Arial" font-size="14.00">Off</text>
<text text-anchor="middle" x="541" y="-126.82" font-family="Arial" font-size="14.00">[_] / on_to_fade_off_action</text>
</g>
<!-- Reset&#45;&gt;Off -->
<g id="edge2" class="edge">
<title>Reset&#45;&gt;Off</title>
<path fill="none" stroke="blue" d="M398.25,-138.02C410.63,-138.02 426.26,-138.02 442.57,-138.02"/>
<polygon fill="blue" stroke="blue" points="442.8,-141.52 452.8,-138.02 442.8,-134.52 442.8,-141.52"/>
<text text-anchor="middle" x="425.5" y="-141.82" font-family="Arial" font-size="14.00">Init</text>
</g>
<!-- On -->
<g id="node3" class="node">
<title>On</title>
<polygon fill="#ffbb33" stroke="red" points="793,-51.02 739,-51.02 739,-15.02 793,-15.02 793,-51.02"/>
<text text-anchor="middle" x="766" y="-29.32" font-family="Arial" font-size="14.00">On</text>
</g>
<!-- On&#45;&gt;On -->
<g id="edge9" class="edge">
<title>On&#45;&gt;On</title>
<path fill="none" stroke="blue" d="M758.22,-51.17C757.02,-60.56 759.62,-69.02 766,-69.02 769.89,-69.02 772.37,-65.88 773.45,-61.3"/>
<polygon fill="blue" stroke="blue" points="776.95,-61.28 773.78,-51.17 769.95,-61.05 776.95,-61.28"/>
<text text-anchor="middle" x="766" y="-72.82" font-family="Arial" font-size="14.00">ManualOn</text>
</g>
<!-- On&#45;&gt;On -->
<g id="edge10" class="edge">
<title>On&#45;&gt;On</title>
<path fill="none" stroke="blue" d="M752.96,-51.28C746.2,-68.42 750.55,-87.02 766,-87.02 778.56,-87.02 783.78,-74.74 781.67,-60.94"/>
<polygon fill="blue" stroke="blue" points="785.04,-60.01 779.04,-51.28 778.29,-61.85 785.04,-60.01"/>
<text text-anchor="middle" x="766" y="-90.82" font-family="Arial" font-size="14.00">AutoOn</text>
</g>
<!-- FadeOff -->
<g id="node4" class="node">
<title>FadeOff</title>
<polygon fill="#ffbb33" stroke="red" points="979,-115.02 913,-115.02 913,-79.02 979,-79.02 979,-115.02"/>
<text text-anchor="middle" x="946" y="-93.32" font-family="Arial" font-size="14.00">FadeOff</text>
</g>
<!-- On&#45;&gt;FadeOff -->
<g id="edge11" class="edge">
<title>On&#45;&gt;FadeOff</title>
<path fill="none" stroke="blue" d="M777.21,-51.13C786.53,-65.67 801.76,-85.08 821,-94.02 846.29,-105.78 877.72,-106.41 902.61,-104.16"/>
<polygon fill="blue" stroke="blue" points="903.28,-107.61 912.84,-103.04 902.52,-100.65 903.28,-107.61"/>
<text text-anchor="middle" x="858" y="-108.82" font-family="Arial" font-size="14.00">Off</text>
</g>
<!-- On&#45;&gt;FadeOff -->
<g id="edge12" class="edge">
<title>On&#45;&gt;FadeOff</title>
<path fill="none" stroke="blue" d="M793.06,-45.06C801.83,-48.86 811.74,-52.88 821,-56.02 853.16,-66.93 862.91,-63.92 895,-75.02 897.73,-75.96 900.52,-77 903.31,-78.08"/>
<polygon fill="blue" stroke="blue" points="902.18,-81.4 912.76,-81.92 904.82,-74.91 902.18,-81.4"/>
<text text-anchor="middle" x="858" y="-78.82" font-family="Arial" font-size="14.00">TimerCheck</text>
</g>
<!-- FadeOff&#45;&gt;On -->
<g id="edge6" class="edge">
<title>FadeOff&#45;&gt;On</title>
<path fill="none" stroke="blue" d="M934.36,-78.95C925.59,-65.91 911.88,-49.22 895,-41.02 866.45,-27.15 829.99,-26.25 803.3,-28.17"/>
<polygon fill="blue" stroke="blue" points="802.88,-24.7 793.23,-29.06 803.5,-31.67 802.88,-24.7"/>
<text text-anchor="middle" x="858" y="-44.82" font-family="Arial" font-size="14.00">ManualOn</text>
</g>
<!-- FadeOff&#45;&gt;On -->
<g id="edge7" class="edge">
<title>FadeOff&#45;&gt;On</title>
<path fill="none" stroke="blue" d="M940.6,-78.99C934.4,-57.92 920.82,-24.05 895,-9.02 866.59,7.51 829.18,-2.47 802.14,-14.18"/>
<polygon fill="blue" stroke="blue" points="800.67,-11.01 793.04,-18.36 803.59,-17.37 800.67,-11.01"/>
<text text-anchor="middle" x="858" y="-12.82" font-family="Arial" font-size="14.00">AutoOn</text>
</g>
<!-- FadeOff&#45;&gt;Off -->
<g id="edge5" class="edge">
<title>FadeOff&#45;&gt;Off</title>
<path fill="none" stroke="blue" d="M937.57,-115.26C929.7,-131.96 915.55,-155.73 895,-167.02 800.74,-218.81 670.51,-186.3 597.46,-160.5"/>
<polygon fill="blue" stroke="blue" points="598.57,-157.18 587.97,-157.08 596.19,-163.76 598.57,-157.18"/>
<text text-anchor="middle" x="766" y="-197.82" font-family="Arial" font-size="14.00">TimerCheck</text>
</g>
<!-- FadeOff&#45;&gt;Off -->
<g id="edge8" class="edge">
<title>FadeOff&#45;&gt;Off</title>
<path fill="none" stroke="blue" d="M916.86,-115.08C909.96,-118.69 902.42,-121.99 895,-124.02 810.99,-147.03 711.56,-148.82 639.66,-145.85"/>
<polygon fill="blue" stroke="blue" points="639.41,-142.34 629.26,-145.38 639.09,-149.33 639.41,-142.34"/>
<text text-anchor="middle" x="766" y="-149.82" font-family="Arial" font-size="14.00">Off</text>
</g>
<!-- Off&#45;&gt;On -->
<g id="edge3" class="edge">
<title>Off&#45;&gt;On</title>
<path fill="none" stroke="blue" d="M590.46,-119C624.66,-105.12 671.28,-85.27 711,-65.02 717.2,-61.86 723.66,-58.29 729.87,-54.71"/>
<polygon fill="blue" stroke="blue" points="731.89,-57.58 738.73,-49.49 728.34,-51.55 731.89,-57.58"/>
<text text-anchor="middle" x="679" y="-96.82" font-family="Arial" font-size="14.00">ManualOn</text>
</g>
<!-- Off&#45;&gt;On -->
<g id="edge4" class="edge">
<title>Off&#45;&gt;On</title>
<path fill="none" stroke="blue" d="M557.48,-118.7C576.16,-96.92 609.73,-62.42 647,-46.02 672.8,-34.67 704.71,-31.73 728.84,-31.46"/>
<polygon fill="blue" stroke="blue" points="728.98,-34.96 739,-31.5 729.01,-27.96 728.98,-34.96"/>
<text text-anchor="middle" x="679" y="-49.82" font-family="Arial" font-size="14.00">AutoOn</text>
</g>
<!-- Init -->
<g id="node6" class="node">
<title>Init</title>
<polygon fill="none" stroke="black" points="205.5,-212.02 101.5,-212.02 101.5,-174.02 205.5,-174.02 205.5,-212.02"/>
<text text-anchor="middle" x="153.5" y="-196.82" font-family="Arial" font-size="14.00">Init</text>
<text text-anchor="middle" x="153.5" y="-181.82" font-family="Arial" font-size="14.00">[_] / init_action</text>
</g>
<!-- ManualOn -->
<g id="node7" class="node">
<title>ManualOn</title>
<polygon fill="none" stroke="black" points="251,-268.02 56,-268.02 56,-230.02 251,-230.02 251,-268.02"/>
<text text-anchor="middle" x="153.5" y="-252.82" font-family="Arial" font-size="14.00">ManualOn</text>
<text text-anchor="middle" x="153.5" y="-237.82" font-family="Arial" font-size="14.00">[_] / manual_on_to_on_action</text>
</g>
<!-- AutoOn -->
<g id="node8" class="node">
<title>AutoOn</title>
<polygon fill="none" stroke="black" points="241.5,-324.02 65.5,-324.02 65.5,-286.02 241.5,-286.02 241.5,-324.02"/>
<text text-anchor="middle" x="153.5" y="-308.82" font-family="Arial" font-size="14.00">AutoOn</text>
<text text-anchor="middle" x="153.5" y="-293.82" font-family="Arial" font-size="14.00">[_] / auto_on_to_on_action</text>
</g>
<!-- TimerCheck -->
<g id="node9" class="node">
<title>TimerCheck</title>
<polygon fill="none" stroke="black" points="307,-380.02 0,-380.02 0,-342.02 307,-342.02 307,-380.02"/>
<text text-anchor="middle" x="153.5" y="-364.82" font-family="Arial" font-size="14.00">TimerCheck</text>
<text text-anchor="middle" x="153.5" y="-349.82" font-family="Arial" font-size="14.00">[on_timer_check_guard] / on_to_fade_off_action</text>
</g>
</g>
</svg>
