<?xml version="1.0" encoding="UTF-8" standalone="no"?>
<!DOCTYPE svg PUBLIC "-//W3C//DTD SVG 1.1//EN"
 "http://www.w3.org/Graphics/SVG/1.1/DTD/svg11.dtd">
<!-- Generated by graphviz version 2.43.0 (0)
 -->
<!-- Title: G Pages: 1 -->
<svg width="987pt" height="277pt"
 viewBox="0.00 0.00 987.00 277.49" xmlns="http://www.w3.org/2000/svg" xmlns:xlink="http://www.w3.org/1999/xlink">
<g id="graph0" class="graph" transform="scale(1 1) rotate(0) translate(4 273.49)">
<title>G</title>
<polygon fill="white" stroke="transparent" points="-4,4 -4,-273.49 983,-273.49 983,4 -4,4"/>
<!-- s -->
<g id="node1" class="node">
<title>s</title>
<ellipse fill="black" stroke="black" cx="153.5" cy="-27.49" rx="18" ry="18"/>
<text text-anchor="middle" x="153.5" y="-23.79" font-family="Arial" font-size="14.00">s</text>
</g>
<!-- Reset -->
<g id="node2" class="node">
<title>Reset</title>
<polygon fill="#ffbb33" stroke="red" points="398,-45.49 344,-45.49 344,-9.49 398,-9.49 398,-45.49"/>
<text text-anchor="middle" x="371" y="-23.79" font-family="Arial" font-size="14.00">Reset</text>
</g>
<!-- s&#45;&gt;Reset -->
<g id="edge1" class="edge">
<title>s&#45;&gt;Reset</title>
<path fill="none" stroke="black" d="M171.77,-27.49C206.78,-27.49 286.75,-27.49 333.72,-27.49"/>
<polygon fill="black" stroke="black" points="333.78,-30.99 343.78,-27.49 333.78,-23.99 333.78,-30.99"/>
</g>
<!-- Off -->
<g id="node4" class="node">
<title>Off</title>
<polygon fill="#ffbb33" stroke="red" points="629,-46.49 453,-46.49 453,-8.49 629,-8.49 629,-46.49"/>
<text text-anchor="middle" x="541" y="-31.29" font-family="Arial" font-size="14.00">Off</text>
<text text-anchor="middle" x="541" y="-16.29" font-family="Arial" font-size="14.00">[_] / on_to_fade_off_action</text>
</g>
<!-- Reset&#45;&gt;Off -->
<g id="edge2" class="edge">
<title>Reset&#45;&gt;Off</title>
<path fill="none" stroke="blue" d="M398.25,-27.49C410.63,-27.49 426.26,-27.49 442.57,-27.49"/>
<polygon fill="blue" stroke="blue" points="442.8,-30.99 452.8,-27.49 442.8,-23.99 442.8,-30.99"/>
<text text-anchor="middle" x="425.5" y="-31.29" font-family="Arial" font-size="14.00">Init</text>
</g>
<!-- On -->
<g id="node3" class="node">
<title>On</title>
<polygon fill="#ffbb33" stroke="red" points="793,-100.49 739,-100.49 739,-64.49 793,-64.49 793,-100.49"/>
<text text-anchor="middle" x="766" y="-78.79" font-family="Arial" font-size="14.00">On</text>
</g>
<!-- On&#45;&gt;On -->
<g id="edge7" class="edge">
<title>On&#45;&gt;On</title>
<path fill="none" stroke="blue" d="M758.22,-100.64C757.02,-110.02 759.62,-118.49 766,-118.49 769.89,-118.49 772.37,-115.34 773.45,-110.76"/>
<polygon fill="blue" stroke="blue" points="776.95,-110.75 773.78,-100.64 769.95,-110.52 776.95,-110.75"/>
<text text-anchor="middle" x="766" y="-122.29" font-family="Arial" font-size="14.00">AutoOn</text>
</g>
<!-- On&#45;&gt;On -->
<g id="edge9" class="edge">
<title>On&#45;&gt;On</title>
<path fill="none" stroke="blue" d="M752.96,-100.74C746.2,-117.89 750.55,-136.49 766,-136.49 778.56,-136.49 783.78,-124.21 781.67,-110.41"/>
<polygon fill="blue" stroke="blue" points="785.04,-109.47 779.04,-100.74 778.29,-111.31 785.04,-109.47"/>
<text text-anchor="middle" x="766" y="-140.29" font-family="Arial" font-size="14.00">ManualOn</text>
</g>
<!-- FadeOff -->
<g id="node5" class="node">
<title>FadeOff</title>
<polygon fill="#ffbb33" stroke="red" points="979,-81.49 913,-81.49 913,-45.49 979,-45.49 979,-81.49"/>
<text text-anchor="middle" x="946" y="-59.79" font-family="Arial" font-size="14.00">FadeOff</text>
</g>
<!-- On&#45;&gt;FadeOff -->
<g id="edge8" class="edge">
<title>On&#45;&gt;FadeOff</title>
<path fill="none" stroke="blue" d="M779.04,-100.52C788.69,-113.23 803.48,-129.23 821,-136.49 851.39,-149.07 865.91,-151.82 895,-136.49 913.18,-126.9 926.01,-107.41 934.12,-90.97"/>
<polygon fill="blue" stroke="blue" points="937.36,-92.3 938.35,-81.75 931,-89.38 937.36,-92.3"/>
<text text-anchor="middle" x="858" y="-150.29" font-family="Arial" font-size="14.00">Off</text>
</g>
<!-- On&#45;&gt;FadeOff -->
<g id="edge10" class="edge">
<title>On&#45;&gt;FadeOff</title>
<path fill="none" stroke="blue" d="M793.01,-90.41C819.24,-97.14 860.65,-104.27 895,-94.49 901.19,-92.72 907.36,-89.95 913.15,-86.77"/>
<polygon fill="blue" stroke="blue" points="915.1,-89.68 921.87,-81.53 911.5,-83.68 915.1,-89.68"/>
<text text-anchor="middle" x="858" y="-102.29" font-family="Arial" font-size="14.00">TimerCheck</text>
</g>
<!-- Off&#45;&gt;On -->
<g id="edge11" class="edge">
<title>Off&#45;&gt;On</title>
<path fill="none" stroke="blue" d="M598.32,-46.55C613.97,-51.48 631.06,-56.51 647,-60.49 674.12,-67.25 705.22,-72.97 728.68,-76.88"/>
<polygon fill="blue" stroke="blue" points="728.13,-80.33 738.56,-78.49 729.25,-73.42 728.13,-80.33"/>
<text text-anchor="middle" x="679" y="-77.29" font-family="Arial" font-size="14.00">AutoOn</text>
</g>
<!-- Off&#45;&gt;On -->
<g id="edge12" class="edge">
<title>Off&#45;&gt;On</title>
<path fill="none" stroke="blue" d="M629.2,-25.37C656.14,-27.16 685.43,-31.69 711,-41.49 720.89,-45.28 730.5,-51.47 738.81,-57.91"/>
<polygon fill="blue" stroke="blue" points="736.69,-60.7 746.64,-64.35 741.14,-55.29 736.69,-60.7"/>
<text text-anchor="middle" x="679" y="-45.29" font-family="Arial" font-size="14.00">ManualOn</text>
</g>
<!-- FadeOff&#45;&gt;On -->
<g id="edge4" class="edge">
<title>FadeOff&#45;&gt;On</title>
<path fill="none" stroke="blue" d="M912.9,-66.91C882.14,-70.2 835.76,-75.15 803.59,-78.58"/>
<polygon fill="blue" stroke="blue" points="802.84,-75.14 793.26,-79.68 803.58,-82.1 802.84,-75.14"/>
<text text-anchor="middle" x="858" y="-79.29" font-family="Arial" font-size="14.00">ManualOn</text>
</g>
<!-- FadeOff&#45;&gt;On -->
<g id="edge6" class="edge">
<title>FadeOff&#45;&gt;On</title>
<path fill="none" stroke="blue" d="M912.86,-53.21C887.5,-46.68 851.45,-40.92 821,-49.49 813.58,-51.57 806.18,-54.99 799.33,-58.86"/>
<polygon fill="blue" stroke="blue" points="797.11,-56.12 790.4,-64.32 800.76,-62.09 797.11,-56.12"/>
<text text-anchor="middle" x="858" y="-53.29" font-family="Arial" font-size="14.00">AutoOn</text>
</g>
<!-- FadeOff&#45;&gt;Off -->
<g id="edge3" class="edge">
<title>FadeOff&#45;&gt;Off</title>
<path fill="none" stroke="blue" d="M912.79,-46.69C907,-44.25 900.92,-42.04 895,-40.49 788.18,-12.5 757.42,-24.43 647,-25.49 644.45,-25.51 641.86,-25.54 639.25,-25.57"/>
<polygon fill="blue" stroke="blue" points="639.04,-22.07 629.09,-25.7 639.13,-29.07 639.04,-22.07"/>
<text text-anchor="middle" x="766" y="-27.29" font-family="Arial" font-size="14.00">TimerCheck</text>
</g>
<!-- FadeOff&#45;&gt;Off -->
<g id="edge5" class="edge">
<title>FadeOff&#45;&gt;Off</title>
<path fill="none" stroke="blue" d="M927.57,-45.11C918.6,-36.7 907.04,-27.32 895,-21.49 857.43,-3.28 844.54,-6.73 803,-2.49 748.77,3.06 688.17,-2.06 639.02,-9.07"/>
<polygon fill="blue" stroke="blue" points="638.41,-5.62 629.03,-10.54 639.43,-12.55 638.41,-5.62"/>
<text text-anchor="middle" x="766" y="-6.29" font-family="Arial" font-size="14.00">Off</text>
</g>
<!-- Init -->
<g id="node6" class="node">
<title>Init</title>
<polygon fill="none" stroke="black" points="205.5,-101.49 101.5,-101.49 101.5,-63.49 205.5,-63.49 205.5,-101.49"/>
<text text-anchor="middle" x="153.5" y="-86.29" font-family="Arial" font-size="14.00">Init</text>
<text text-anchor="middle" x="153.5" y="-71.29" font-family="Arial" font-size="14.00">[_] / init_action</text>
</g>
<!-- TimerCheck -->
<g id="node7" class="node">
<title>TimerCheck</title>
<polygon fill="none" stroke="black" points="307,-157.49 0,-157.49 0,-119.49 307,-119.49 307,-157.49"/>
<text text-anchor="middle" x="153.5" y="-142.29" font-family="Arial" font-size="14.00">TimerCheck</text>
<text text-anchor="middle" x="153.5" y="-127.29" font-family="Arial" font-size="14.00">[on_timer_check_guard] / on_to_fade_off_action</text>
</g>
<!-- ManualOn -->
<g id="node8" class="node">
<title>ManualOn</title>
<polygon fill="none" stroke="black" points="251,-213.49 56,-213.49 56,-175.49 251,-175.49 251,-213.49"/>
<text text-anchor="middle" x="153.5" y="-198.29" font-family="Arial" font-size="14.00">ManualOn</text>
<text text-anchor="middle" x="153.5" y="-183.29" font-family="Arial" font-size="14.00">[_] / off_to_manual_on_action</text>
</g>
<!-- AutoOn -->
<g id="node9" class="node">
<title>AutoOn</title>
<polygon fill="none" stroke="black" points="241.5,-269.49 65.5,-269.49 65.5,-231.49 241.5,-231.49 241.5,-269.49"/>
<text text-anchor="middle" x="153.5" y="-254.29" font-family="Arial" font-size="14.00">AutoOn</text>
<text text-anchor="middle" x="153.5" y="-239.29" font-family="Arial" font-size="14.00">[_] / off_to_auto_on_action</text>
</g>
</g>
</svg>
