<?xml version="1.0" encoding="UTF-8" standalone="no"?>
<!DOCTYPE svg PUBLIC "-//W3C//DTD SVG 1.1//EN"
 "http://www.w3.org/Graphics/SVG/1.1/DTD/svg11.dtd">
<!-- Generated by graphviz version 2.43.0 (0)
 -->
<!-- Title: G Pages: 1 -->
<svg width="739pt" height="298pt"
 viewBox="0.00 0.00 739.00 298.48" xmlns="http://www.w3.org/2000/svg" xmlns:xlink="http://www.w3.org/1999/xlink">
<g id="graph0" class="graph" transform="scale(1 1) rotate(0) translate(4 294.48)">
<title>G</title>
<polygon fill="white" stroke="transparent" points="-4,4 -4,-294.48 735,-294.48 735,4 -4,4"/>
<!-- s -->
<g id="node1" class="node">
<title>s</title>
<ellipse fill="black" stroke="black" cx="136.5" cy="-48.48" rx="18" ry="18"/>
<text text-anchor="middle" x="136.5" y="-44.78" font-family="Arial" font-size="14.00">s</text>
</g>
<!-- Reset -->
<g id="node2" class="node">
<title>Reset</title>
<polygon fill="#ffbb33" stroke="red" points="364,-66.48 310,-66.48 310,-30.48 364,-30.48 364,-66.48"/>
<text text-anchor="middle" x="337" y="-44.78" font-family="Arial" font-size="14.00">Reset</text>
</g>
<!-- s&#45;&gt;Reset -->
<g id="edge1" class="edge">
<title>s&#45;&gt;Reset</title>
<path fill="none" stroke="black" d="M154.77,-48.48C187.01,-48.48 256.98,-48.48 299.93,-48.48"/>
<polygon fill="black" stroke="black" points="299.97,-51.98 309.97,-48.48 299.97,-44.98 299.97,-51.98"/>
</g>
<!-- Off -->
<g id="node3" class="node">
<title>Off</title>
<polygon fill="#ffbb33" stroke="red" points="562,-67.48 419,-67.48 419,-29.48 562,-29.48 562,-67.48"/>
<text text-anchor="middle" x="490.5" y="-52.28" font-family="Arial" font-size="14.00">Off</text>
<text text-anchor="middle" x="490.5" y="-37.28" font-family="Arial" font-size="14.00">[_] / on_to_off_action</text>
</g>
<!-- Reset&#45;&gt;Off -->
<g id="edge6" class="edge">
<title>Reset&#45;&gt;Off</title>
<path fill="none" stroke="blue" d="M364.04,-48.48C376.65,-48.48 392.56,-48.48 408.76,-48.48"/>
<polygon fill="blue" stroke="blue" points="408.87,-51.98 418.87,-48.48 408.87,-44.98 408.87,-51.98"/>
<text text-anchor="middle" x="391.5" y="-52.28" font-family="Arial" font-size="14.00">Init</text>
</g>
<!-- On -->
<g id="node4" class="node">
<title>On</title>
<polygon fill="#ffbb33" stroke="red" points="726,-66.48 672,-66.48 672,-30.48 726,-30.48 726,-66.48"/>
<text text-anchor="middle" x="699" y="-44.78" font-family="Arial" font-size="14.00">On</text>
</g>
<!-- Off&#45;&gt;On -->
<g id="edge7" class="edge">
<title>Off&#45;&gt;On</title>
<path fill="none" stroke="blue" d="M528.03,-67.56C561.43,-82.39 611.91,-98.18 654,-83.48 660.69,-81.15 667.12,-77.32 672.9,-73.04"/>
<polygon fill="blue" stroke="blue" points="675.32,-75.59 680.86,-66.57 670.9,-70.16 675.32,-75.59"/>
<text text-anchor="middle" x="617" y="-92.28" font-family="Arial" font-size="14.00">ManualOn</text>
</g>
<!-- Off&#45;&gt;On -->
<g id="edge8" class="edge">
<title>Off&#45;&gt;On</title>
<path fill="none" stroke="blue" d="M562.28,-48.48C595.67,-48.48 634.11,-48.48 661.54,-48.48"/>
<polygon fill="blue" stroke="blue" points="661.84,-51.98 671.84,-48.48 661.84,-44.98 661.84,-51.98"/>
<text text-anchor="middle" x="617" y="-52.28" font-family="Arial" font-size="14.00">AutoOn</text>
</g>
<!-- On&#45;&gt;Off -->
<g id="edge2" class="edge">
<title>On&#45;&gt;Off</title>
<path fill="none" stroke="blue" d="M671.99,-35.91C666.2,-33.66 659.99,-31.66 654,-30.48 627.58,-25.29 598.42,-26.41 572.18,-29.89"/>
<polygon fill="blue" stroke="blue" points="571.67,-26.43 562.28,-31.33 572.68,-33.36 571.67,-26.43"/>
<text text-anchor="middle" x="617" y="-34.28" font-family="Arial" font-size="14.00">Off</text>
</g>
<!-- On&#45;&gt;Off -->
<g id="edge4" class="edge">
<title>On&#45;&gt;Off</title>
<path fill="none" stroke="blue" d="M684.2,-30.38C676.4,-21.68 665.85,-12.15 654,-7.48 623.4,4.57 612.12,-0.4 580,-7.48 563.99,-11.01 547.44,-17.73 533.04,-24.73"/>
<polygon fill="blue" stroke="blue" points="531.26,-21.7 523.91,-29.33 534.42,-27.95 531.26,-21.7"/>
<text text-anchor="middle" x="617" y="-11.28" font-family="Arial" font-size="14.00">TimerCheck</text>
</g>
<!-- On&#45;&gt;On -->
<g id="edge3" class="edge">
<title>On&#45;&gt;On</title>
<path fill="none" stroke="blue" d="M691.58,-66.64C690.44,-76.02 692.91,-84.48 699,-84.48 702.71,-84.48 705.08,-81.34 706.1,-76.76"/>
<polygon fill="blue" stroke="blue" points="709.6,-76.74 706.42,-66.64 702.61,-76.52 709.6,-76.74"/>
<text text-anchor="middle" x="699" y="-88.28" font-family="Arial" font-size="14.00">ManualOn</text>
</g>
<!-- On&#45;&gt;On -->
<g id="edge5" class="edge">
<title>On&#45;&gt;On</title>
<path fill="none" stroke="blue" d="M686.57,-66.74C680.12,-83.89 684.27,-102.48 699,-102.48 710.86,-102.48 715.86,-90.44 714,-76.8"/>
<polygon fill="blue" stroke="blue" points="717.29,-75.57 711.43,-66.74 710.51,-77.3 717.29,-75.57"/>
<text text-anchor="middle" x="699" y="-106.28" font-family="Arial" font-size="14.00">AutoOn</text>
</g>
<!-- ManualOn -->
<g id="node5" class="node">
<title>ManualOn</title>
<polygon fill="none" stroke="black" points="213.5,-122.48 59.5,-122.48 59.5,-84.48 213.5,-84.48 213.5,-122.48"/>
<text text-anchor="middle" x="136.5" y="-107.28" font-family="Arial" font-size="14.00">ManualOn</text>
<text text-anchor="middle" x="136.5" y="-92.28" font-family="Arial" font-size="14.00">[_] / manual_on_action</text>
</g>
<!-- TimerCheck -->
<g id="node6" class="node">
<title>TimerCheck</title>
<polygon fill="none" stroke="black" points="273,-178.48 0,-178.48 0,-140.48 273,-140.48 273,-178.48"/>
<text text-anchor="middle" x="136.5" y="-163.28" font-family="Arial" font-size="14.00">TimerCheck</text>
<text text-anchor="middle" x="136.5" y="-148.28" font-family="Arial" font-size="14.00">[on_timer_check_guard] / on_to_off_action</text>
</g>
<!-- AutoOn -->
<g id="node7" class="node">
<title>AutoOn</title>
<polygon fill="none" stroke="black" points="204,-234.48 69,-234.48 69,-196.48 204,-196.48 204,-234.48"/>
<text text-anchor="middle" x="136.5" y="-219.28" font-family="Arial" font-size="14.00">AutoOn</text>
<text text-anchor="middle" x="136.5" y="-204.28" font-family="Arial" font-size="14.00">[_] / auto_on_action</text>
</g>
<!-- Init -->
<g id="node8" class="node">
<title>Init</title>
<polygon fill="none" stroke="black" points="188.5,-290.48 84.5,-290.48 84.5,-252.48 188.5,-252.48 188.5,-290.48"/>
<text text-anchor="middle" x="136.5" y="-275.28" font-family="Arial" font-size="14.00">Init</text>
<text text-anchor="middle" x="136.5" y="-260.28" font-family="Arial" font-size="14.00">[_] / init_action</text>
</g>
</g>
</svg>
