<?xml version="1.0" encoding="UTF-8" standalone="no"?>
<!DOCTYPE svg PUBLIC "-//W3C//DTD SVG 1.1//EN"
 "http://www.w3.org/Graphics/SVG/1.1/DTD/svg11.dtd">
<!-- Generated by graphviz version 2.43.0 (0)
 -->
<!-- Title: G Pages: 1 -->
<svg width="960pt" height="308pt"
 viewBox="0.00 0.00 960.00 307.56" xmlns="http://www.w3.org/2000/svg" xmlns:xlink="http://www.w3.org/1999/xlink">
<g id="graph0" class="graph" transform="scale(1 1) rotate(0) translate(4 303.56)">
<title>G</title>
<polygon fill="white" stroke="transparent" points="-4,4 -4,-303.56 956,-303.56 956,4 -4,4"/>
<!-- s -->
<g id="node1" class="node">
<title>s</title>
<ellipse fill="black" stroke="black" cx="170.5" cy="-142.56" rx="18" ry="18"/>
<text text-anchor="middle" x="170.5" y="-138.86" font-family="Arial" font-size="14.00">s</text>
</g>
<!-- Reset -->
<g id="node2" class="node">
<title>Reset</title>
<polygon fill="#ffbb33" stroke="red" points="432,-160.56 378,-160.56 378,-124.56 432,-124.56 432,-160.56"/>
<text text-anchor="middle" x="405" y="-138.86" font-family="Arial" font-size="14.00">Reset</text>
</g>
<!-- s&#45;&gt;Reset -->
<g id="edge1" class="edge">
<title>s&#45;&gt;Reset</title>
<path fill="none" stroke="black" d="M188.6,-142.56C226.19,-142.56 316.75,-142.56 367.66,-142.56"/>
<polygon fill="black" stroke="black" points="367.89,-146.06 377.89,-142.56 367.89,-139.06 367.89,-146.06"/>
</g>
<!-- Off -->
<g id="node6" class="node">
<title>Off</title>
<polygon fill="#ffbb33" stroke="red" points="663,-161.56 487,-161.56 487,-123.56 663,-123.56 663,-161.56"/>
<text text-anchor="middle" x="575" y="-146.36" font-family="Arial" font-size="14.00">Off</text>
<text text-anchor="middle" x="575" y="-131.36" font-family="Arial" font-size="14.00">[_] / auto_on_to_off_action</text>
</g>
<!-- Reset&#45;&gt;Off -->
<g id="edge2" class="edge">
<title>Reset&#45;&gt;Off</title>
<path fill="none" stroke="blue" d="M432.25,-142.56C444.63,-142.56 460.26,-142.56 476.57,-142.56"/>
<polygon fill="blue" stroke="blue" points="476.8,-146.06 486.8,-142.56 476.8,-139.06 476.8,-146.06"/>
<text text-anchor="middle" x="459.5" y="-146.36" font-family="Arial" font-size="14.00">Init</text>
</g>
<!-- ManualMode -->
<g id="node3" class="node">
<title>ManualMode</title>
<polygon fill="#ffbb33" stroke="red" points="952,-275.56 779,-275.56 779,-237.56 952,-237.56 952,-275.56"/>
<text text-anchor="middle" x="865.5" y="-260.36" font-family="Arial" font-size="14.00">ManualMode</text>
<text text-anchor="middle" x="865.5" y="-245.36" font-family="Arial" font-size="14.00">[_] / manual_mode_action</text>
</g>
<!-- ManualMode&#45;&gt;Off -->
<g id="edge3" class="edge">
<title>ManualMode&#45;&gt;Off</title>
<path fill="none" stroke="blue" d="M778.56,-256.8C746.78,-254.21 711.18,-248.02 681,-234.56 647.88,-219.79 617.61,-190.86 598.17,-169.36"/>
<polygon fill="blue" stroke="blue" points="600.75,-167 591.51,-161.82 595.5,-171.63 600.75,-167"/>
<text text-anchor="middle" x="721" y="-258.36" font-family="Arial" font-size="14.00">TimerCheck</text>
</g>
<!-- ManualMode&#45;&gt;Off -->
<g id="edge4" class="edge">
<title>ManualMode&#45;&gt;Off</title>
<path fill="none" stroke="blue" d="M816.32,-237.46C798.9,-230.55 779.06,-222.7 761,-215.56 718.41,-198.72 670.29,-179.73 633.8,-165.34"/>
<polygon fill="blue" stroke="blue" points="634.89,-162.01 624.31,-161.6 632.33,-168.53 634.89,-162.01"/>
<text text-anchor="middle" x="721" y="-219.36" font-family="Arial" font-size="14.00">Off</text>
</g>
<!-- ManualColor -->
<g id="node4" class="node">
<title>ManualColor</title>
<polygon fill="#ffbb33" stroke="red" points="949.5,-161.56 781.5,-161.56 781.5,-123.56 949.5,-123.56 949.5,-161.56"/>
<text text-anchor="middle" x="865.5" y="-146.36" font-family="Arial" font-size="14.00">ManualColor</text>
<text text-anchor="middle" x="865.5" y="-131.36" font-family="Arial" font-size="14.00">[_] / manual_color_action</text>
</g>
<!-- ManualColor&#45;&gt;Off -->
<g id="edge5" class="edge">
<title>ManualColor&#45;&gt;Off</title>
<path fill="none" stroke="blue" d="M781.41,-142.56C747.73,-142.56 708.6,-142.56 673.58,-142.56"/>
<polygon fill="blue" stroke="blue" points="673.34,-139.06 663.34,-142.56 673.34,-146.06 673.34,-139.06"/>
<text text-anchor="middle" x="721" y="-146.36" font-family="Arial" font-size="14.00">TimerCheck</text>
</g>
<!-- ManualColor&#45;&gt;Off -->
<g id="edge6" class="edge">
<title>ManualColor&#45;&gt;Off</title>
<path fill="none" stroke="blue" d="M781.36,-125.94C774.49,-124.98 767.64,-124.16 761,-123.56 725.59,-120.34 716.41,-120.38 681,-123.56 678.46,-123.79 675.88,-124.05 673.29,-124.33"/>
<polygon fill="blue" stroke="blue" points="672.72,-120.88 663.21,-125.56 673.56,-127.82 672.72,-120.88"/>
<text text-anchor="middle" x="721" y="-127.36" font-family="Arial" font-size="14.00">Off</text>
</g>
<!-- AutoOn -->
<g id="node5" class="node">
<title>AutoOn</title>
<polygon fill="#ffbb33" stroke="red" points="933,-47.56 798,-47.56 798,-9.56 933,-9.56 933,-47.56"/>
<text text-anchor="middle" x="865.5" y="-32.36" font-family="Arial" font-size="14.00">AutoOn</text>
<text text-anchor="middle" x="865.5" y="-17.36" font-family="Arial" font-size="14.00">[_] / auto_on_action</text>
</g>
<!-- AutoOn&#45;&gt;Off -->
<g id="edge10" class="edge">
<title>AutoOn&#45;&gt;Off</title>
<path fill="none" stroke="blue" d="M797.91,-28.16C761.93,-30.15 717.53,-36.27 681,-52.56 648.53,-67.04 618.49,-94.88 598.93,-115.78"/>
<polygon fill="blue" stroke="blue" points="596.13,-113.66 591.97,-123.41 601.3,-118.38 596.13,-113.66"/>
<text text-anchor="middle" x="721" y="-56.36" font-family="Arial" font-size="14.00">Off</text>
</g>
<!-- AutoOn&#45;&gt;Off -->
<g id="edge11" class="edge">
<title>AutoOn&#45;&gt;Off</title>
<path fill="none" stroke="blue" d="M809.27,-9.47C771.4,0.28 720.96,6.53 681,-12.56 637.11,-33.53 605.67,-82.79 589.2,-114.29"/>
<polygon fill="blue" stroke="blue" points="585.96,-112.94 584.57,-123.45 592.21,-116.1 585.96,-112.94"/>
<text text-anchor="middle" x="721" y="-16.36" font-family="Arial" font-size="14.00">TimerCheck</text>
</g>
<!-- Off&#45;&gt;ManualMode -->
<g id="edge8" class="edge">
<title>Off&#45;&gt;ManualMode</title>
<path fill="none" stroke="blue" d="M584.57,-161.67C599.3,-191.84 632.57,-249.42 681,-272.56 717.53,-290.01 762.8,-286.29 799.24,-278.07"/>
<polygon fill="blue" stroke="blue" points="800.37,-281.4 809.27,-275.64 798.73,-274.59 800.37,-281.4"/>
<text text-anchor="middle" x="721" y="-288.36" font-family="Arial" font-size="14.00">ManualMode</text>
</g>
<!-- Off&#45;&gt;ManualColor -->
<g id="edge7" class="edge">
<title>Off&#45;&gt;ManualColor</title>
<path fill="none" stroke="blue" d="M663.26,-156.88C669.25,-157.55 675.21,-158.12 681,-158.56 716.45,-161.25 725.55,-161.28 761,-158.56 764.31,-158.31 767.67,-158.01 771.06,-157.67"/>
<polygon fill="blue" stroke="blue" points="771.74,-161.12 781.31,-156.55 770.99,-154.16 771.74,-161.12"/>
<text text-anchor="middle" x="721" y="-164.36" font-family="Arial" font-size="14.00">ManualColor</text>
</g>
<!-- Off&#45;&gt;AutoOn -->
<g id="edge9" class="edge">
<title>Off&#45;&gt;AutoOn</title>
<path fill="none" stroke="blue" d="M624.29,-123.48C674.53,-103.63 753.19,-72.54 806.7,-51.4"/>
<polygon fill="blue" stroke="blue" points="808.04,-54.63 816.05,-47.7 805.47,-48.12 808.04,-54.63"/>
<text text-anchor="middle" x="721" y="-102.36" font-family="Arial" font-size="14.00">AutoOn</text>
</g>
<!-- Init -->
<g id="node7" class="node">
<title>Init</title>
<polygon fill="none" stroke="black" points="222.5,-216.56 118.5,-216.56 118.5,-178.56 222.5,-178.56 222.5,-216.56"/>
<text text-anchor="middle" x="170.5" y="-201.36" font-family="Arial" font-size="14.00">Init</text>
<text text-anchor="middle" x="170.5" y="-186.36" font-family="Arial" font-size="14.00">[_] / init_action</text>
</g>
<!-- TimerCheck -->
<g id="node8" class="node">
<title>TimerCheck</title>
<polygon fill="none" stroke="black" points="341,-272.56 0,-272.56 0,-234.56 341,-234.56 341,-272.56"/>
<text text-anchor="middle" x="170.5" y="-257.36" font-family="Arial" font-size="14.00">TimerCheck</text>
<text text-anchor="middle" x="170.5" y="-242.36" font-family="Arial" font-size="14.00">[auto_on_timer_check_guard] / auto_on_to_off_action</text>
</g>
</g>
</svg>
