<?xml version="1.0" encoding="UTF-8" standalone="no"?>
<!DOCTYPE svg PUBLIC "-//W3C//DTD SVG 1.1//EN"
 "http://www.w3.org/Graphics/SVG/1.1/DTD/svg11.dtd">
<!-- Generated by graphviz version 2.43.0 (0)
 -->
<!-- Title: G Pages: 1 -->
<svg width="650pt" height="648pt"
 viewBox="0.00 0.00 650.00 647.63" xmlns="http://www.w3.org/2000/svg" xmlns:xlink="http://www.w3.org/1999/xlink">
<g id="graph0" class="graph" transform="scale(1 1) rotate(0) translate(4 643.63)">
<title>G</title>
<polygon fill="white" stroke="transparent" points="-4,4 -4,-643.63 646,-643.63 646,4 -4,4"/>
<!-- s -->
<g id="node1" class="node">
<title>s</title>
<ellipse fill="black" stroke="black" cx="136.5" cy="-117.63" rx="18" ry="18"/>
<text text-anchor="middle" x="136.5" y="-113.93" font-family="Arial" font-size="14.00">s</text>
</g>
<!-- Reset -->
<g id="node2" class="node">
<title>Reset</title>
<polygon fill="#ffbb33" stroke="red" points="364,-135.63 310,-135.63 310,-99.63 364,-99.63 364,-135.63"/>
<text text-anchor="middle" x="337" y="-113.93" font-family="Arial" font-size="14.00">Reset</text>
</g>
<!-- s&#45;&gt;Reset -->
<g id="edge1" class="edge">
<title>s&#45;&gt;Reset</title>
<path fill="none" stroke="black" d="M154.77,-117.63C187.01,-117.63 256.98,-117.63 299.93,-117.63"/>
<polygon fill="black" stroke="black" points="299.97,-121.13 309.97,-117.63 299.97,-114.13 299.97,-121.13"/>
</g>
<!-- Off -->
<g id="node4" class="node">
<title>Off</title>
<polygon fill="#ffbb33" stroke="red" points="473,-135.63 419,-135.63 419,-99.63 473,-99.63 473,-135.63"/>
<text text-anchor="middle" x="446" y="-113.93" font-family="Arial" font-size="14.00">Off</text>
</g>
<!-- Reset&#45;&gt;Off -->
<g id="edge2" class="edge">
<title>Reset&#45;&gt;Off</title>
<path fill="none" stroke="blue" d="M364.18,-117.63C377.52,-117.63 393.96,-117.63 408.52,-117.63"/>
<polygon fill="blue" stroke="blue" points="408.72,-121.13 418.72,-117.63 408.72,-114.13 408.72,-121.13"/>
<text text-anchor="middle" x="391.5" y="-121.43" font-family="Arial" font-size="14.00">Init</text>
</g>
<!-- On -->
<g id="node3" class="node">
<title>On</title>
<polygon fill="#ffbb33" stroke="red" points="637,-135.63 583,-135.63 583,-99.63 637,-99.63 637,-135.63"/>
<text text-anchor="middle" x="610" y="-113.93" font-family="Arial" font-size="14.00">On</text>
</g>
<!-- On&#45;&gt;On -->
<g id="edge10" class="edge">
<title>On&#45;&gt;On</title>
<path fill="none" stroke="blue" d="M607.53,-135.78C607.15,-145.17 607.97,-153.63 610,-153.63 611.24,-153.63 612.03,-150.48 612.37,-145.91"/>
<polygon fill="blue" stroke="blue" points="615.87,-145.82 612.47,-135.78 608.87,-145.74 615.87,-145.82"/>
<text text-anchor="middle" x="610" y="-157.43" font-family="Arial" font-size="14.00">ManualOn</text>
</g>
<!-- On&#45;&gt;On -->
<g id="edge11" class="edge">
<title>On&#45;&gt;On</title>
<path fill="none" stroke="blue" d="M605.86,-135.88C603.71,-153.03 605.09,-171.63 610,-171.63 613.95,-171.63 615.62,-159.58 615,-145.95"/>
<polygon fill="blue" stroke="blue" points="618.48,-145.55 614.14,-135.88 611.5,-146.14 618.48,-145.55"/>
<text text-anchor="middle" x="610" y="-175.43" font-family="Arial" font-size="14.00">Smooth</text>
</g>
<!-- On&#45;&gt;On -->
<g id="edge13" class="edge">
<title>On&#45;&gt;On</title>
<path fill="none" stroke="blue" d="M604.81,-135.7C600.22,-160.04 601.95,-189.63 610,-189.63 616.98,-189.63 619.21,-167.37 616.68,-145.6"/>
<polygon fill="blue" stroke="blue" points="620.14,-145.07 615.19,-135.7 613.22,-146.12 620.14,-145.07"/>
<text text-anchor="middle" x="610" y="-193.43" font-family="Arial" font-size="14.00">Strobe</text>
</g>
<!-- On&#45;&gt;On -->
<g id="edge14" class="edge">
<title>On&#45;&gt;On</title>
<path fill="none" stroke="blue" d="M604.06,-135.74C596.76,-166.87 598.74,-207.63 610,-207.63 620.08,-207.63 622.72,-175.01 617.94,-145.85"/>
<polygon fill="blue" stroke="blue" points="621.32,-144.87 615.94,-135.74 614.45,-146.23 621.32,-144.87"/>
<text text-anchor="middle" x="610" y="-211.43" font-family="Arial" font-size="14.00">Fade</text>
</g>
<!-- On&#45;&gt;On -->
<g id="edge16" class="edge">
<title>On&#45;&gt;On</title>
<path fill="none" stroke="blue" d="M603.52,-135.68C593.29,-173.42 595.45,-225.63 610,-225.63 623.3,-225.63 626.24,-182 618.84,-145.69"/>
<polygon fill="blue" stroke="blue" points="622.18,-144.61 616.48,-135.68 615.37,-146.22 622.18,-144.61"/>
<text text-anchor="middle" x="610" y="-229.43" font-family="Arial" font-size="14.00">Flash</text>
</g>
<!-- On&#45;&gt;On -->
<g id="edge17" class="edge">
<title>On&#45;&gt;On</title>
<path fill="none" stroke="blue" d="M603.09,-135.69C589.84,-179.89 592.14,-243.63 610,-243.63 626.57,-243.63 629.75,-188.77 619.54,-145.55"/>
<polygon fill="blue" stroke="blue" points="622.87,-144.45 616.91,-135.69 616.1,-146.26 622.87,-144.45"/>
<text text-anchor="middle" x="610" y="-247.43" font-family="Arial" font-size="14.00">AutoOn</text>
</g>
<!-- On&#45;&gt;Off -->
<g id="edge12" class="edge">
<title>On&#45;&gt;Off</title>
<path fill="none" stroke="blue" d="M603.78,-135.81C597.65,-153.38 585.61,-178.98 565,-190.63 536.36,-206.8 519.64,-206.8 491,-190.63 473.93,-180.98 462.74,-161.77 455.92,-145.47"/>
<polygon fill="blue" stroke="blue" points="459.07,-143.9 452.22,-135.81 452.53,-146.4 459.07,-143.9"/>
<text text-anchor="middle" x="528" y="-206.43" font-family="Arial" font-size="14.00">ManualOff</text>
</g>
<!-- On&#45;&gt;Off -->
<g id="edge15" class="edge">
<title>On&#45;&gt;Off</title>
<path fill="none" stroke="blue" d="M582.58,-131.08C576.91,-133.38 570.87,-135.41 565,-136.63 532.79,-143.28 523.21,-143.28 491,-136.63 488.34,-136.08 485.65,-135.36 482.97,-134.52"/>
<polygon fill="blue" stroke="blue" points="484.02,-131.18 473.42,-131.08 481.64,-137.77 484.02,-131.18"/>
<text text-anchor="middle" x="528" y="-144.43" font-family="Arial" font-size="14.00">TimerCheck</text>
</g>
<!-- Off&#45;&gt;On -->
<g id="edge3" class="edge">
<title>Off&#45;&gt;On</title>
<path fill="none" stroke="blue" d="M448.22,-136.05C451.02,-161.82 460.31,-207.78 491,-228.63 518.21,-247.11 537.79,-247.11 565,-228.63 591.98,-210.3 602.41,-172.58 606.45,-146.22"/>
<polygon fill="blue" stroke="blue" points="609.96,-146.42 607.78,-136.05 603.01,-145.51 609.96,-146.42"/>
<text text-anchor="middle" x="528" y="-245.43" font-family="Arial" font-size="14.00">ManualOn</text>
</g>
<!-- Off&#45;&gt;On -->
<g id="edge4" class="edge">
<title>Off&#45;&gt;On</title>
<path fill="none" stroke="blue" d="M473.03,-117.63C499.99,-117.63 542.34,-117.63 572.61,-117.63"/>
<polygon fill="blue" stroke="blue" points="572.77,-121.13 582.77,-117.63 572.77,-114.13 572.77,-121.13"/>
<text text-anchor="middle" x="528" y="-121.43" font-family="Arial" font-size="14.00">Strobe</text>
</g>
<!-- Off&#45;&gt;On -->
<g id="edge5" class="edge">
<title>Off&#45;&gt;On</title>
<path fill="none" stroke="blue" d="M473.42,-104.17C479.09,-101.87 485.13,-99.84 491,-98.63 523.21,-91.97 532.79,-91.97 565,-98.63 567.66,-99.18 570.35,-99.89 573.03,-100.73"/>
<polygon fill="blue" stroke="blue" points="571.98,-104.07 582.58,-104.17 574.36,-97.48 571.98,-104.07"/>
<text text-anchor="middle" x="528" y="-102.43" font-family="Arial" font-size="14.00">Fade</text>
</g>
<!-- Off&#45;&gt;On -->
<g id="edge6" class="edge">
<title>Off&#45;&gt;On</title>
<path fill="none" stroke="blue" d="M459.87,-99.55C467.68,-90.2 478.54,-79.71 491,-74.63 521.46,-62.22 534.54,-62.22 565,-74.63 574.15,-78.36 582.44,-85.01 589.29,-91.98"/>
<polygon fill="blue" stroke="blue" points="586.82,-94.48 596.13,-99.55 592.02,-89.79 586.82,-94.48"/>
<text text-anchor="middle" x="528" y="-78.43" font-family="Arial" font-size="14.00">Smooth</text>
</g>
<!-- Off&#45;&gt;On -->
<g id="edge7" class="edge">
<title>Off&#45;&gt;On</title>
<path fill="none" stroke="blue" d="M452.41,-99.36C458.63,-82.04 470.68,-57.02 491,-45.63 519.69,-29.54 536.31,-29.54 565,-45.63 581.82,-55.06 592.98,-73.84 599.85,-89.85"/>
<polygon fill="blue" stroke="blue" points="596.67,-91.33 603.59,-99.36 603.19,-88.77 596.67,-91.33"/>
<text text-anchor="middle" x="528" y="-49.43" font-family="Arial" font-size="14.00">Flash</text>
</g>
<!-- Off&#45;&gt;On -->
<g id="edge9" class="edge">
<title>Off&#45;&gt;On</title>
<path fill="none" stroke="blue" d="M448.72,-99.5C452.11,-75.17 462.07,-32.8 491,-13.63 518.41,4.54 537.59,4.54 565,-13.63 590.31,-30.4 601.1,-64.94 605.67,-89.62"/>
<polygon fill="blue" stroke="blue" points="602.22,-90.19 607.28,-99.5 609.13,-89.07 602.22,-90.19"/>
<text text-anchor="middle" x="528" y="-17.43" font-family="Arial" font-size="14.00">AutoOn</text>
</g>
<!-- Off&#45;&gt;Off -->
<g id="edge8" class="edge">
<title>Off&#45;&gt;Off</title>
<path fill="none" stroke="blue" d="M436.23,-135.78C434.73,-145.17 437.98,-153.63 446,-153.63 450.88,-153.63 454,-150.48 455.35,-145.91"/>
<polygon fill="blue" stroke="blue" points="458.85,-145.92 455.77,-135.78 451.86,-145.63 458.85,-145.92"/>
<text text-anchor="middle" x="446" y="-157.43" font-family="Arial" font-size="14.00">TimerCheck</text>
</g>
<!-- Init -->
<g id="node5" class="node">
<title>Init</title>
<polygon fill="none" stroke="black" points="188.5,-191.63 84.5,-191.63 84.5,-153.63 188.5,-153.63 188.5,-191.63"/>
<text text-anchor="middle" x="136.5" y="-176.43" font-family="Arial" font-size="14.00">Init</text>
<text text-anchor="middle" x="136.5" y="-161.43" font-family="Arial" font-size="14.00">[_] / init_action</text>
</g>
<!-- ManualOn -->
<g id="node6" class="node">
<title>ManualOn</title>
<polygon fill="none" stroke="black" points="234,-247.63 39,-247.63 39,-209.63 234,-209.63 234,-247.63"/>
<text text-anchor="middle" x="136.5" y="-232.43" font-family="Arial" font-size="14.00">ManualOn</text>
<text text-anchor="middle" x="136.5" y="-217.43" font-family="Arial" font-size="14.00">[_] / on_to_manual_on_action</text>
</g>
<!-- Strobe -->
<g id="node7" class="node">
<title>Strobe</title>
<polygon fill="none" stroke="black" points="230.5,-303.63 42.5,-303.63 42.5,-265.63 230.5,-265.63 230.5,-303.63"/>
<text text-anchor="middle" x="136.5" y="-288.43" font-family="Arial" font-size="14.00">Strobe</text>
<text text-anchor="middle" x="136.5" y="-273.43" font-family="Arial" font-size="14.00">[_] / on_to_strobe_on_action</text>
</g>
<!-- Fade -->
<g id="node8" class="node">
<title>Fade</title>
<polygon fill="none" stroke="black" points="224.5,-359.63 48.5,-359.63 48.5,-321.63 224.5,-321.63 224.5,-359.63"/>
<text text-anchor="middle" x="136.5" y="-344.43" font-family="Arial" font-size="14.00">Fade</text>
<text text-anchor="middle" x="136.5" y="-329.43" font-family="Arial" font-size="14.00">[_] / on_to_fade_on_action</text>
</g>
<!-- Smooth -->
<g id="node9" class="node">
<title>Smooth</title>
<polygon fill="none" stroke="black" points="234,-415.63 39,-415.63 39,-377.63 234,-377.63 234,-415.63"/>
<text text-anchor="middle" x="136.5" y="-400.43" font-family="Arial" font-size="14.00">Smooth</text>
<text text-anchor="middle" x="136.5" y="-385.43" font-family="Arial" font-size="14.00">[_] / on_to_smooth_on_action</text>
</g>
<!-- Flash -->
<g id="node10" class="node">
<title>Flash</title>
<polygon fill="none" stroke="black" points="226,-471.63 47,-471.63 47,-433.63 226,-433.63 226,-471.63"/>
<text text-anchor="middle" x="136.5" y="-456.43" font-family="Arial" font-size="14.00">Flash</text>
<text text-anchor="middle" x="136.5" y="-441.43" font-family="Arial" font-size="14.00">[_] / on_to_flash_on_action</text>
</g>
<!-- TimerCheck -->
<g id="node11" class="node">
<title>TimerCheck</title>
<polygon fill="none" stroke="black" points="273,-527.63 0,-527.63 0,-489.63 273,-489.63 273,-527.63"/>
<text text-anchor="middle" x="136.5" y="-512.43" font-family="Arial" font-size="14.00">TimerCheck</text>
<text text-anchor="middle" x="136.5" y="-497.43" font-family="Arial" font-size="14.00">[on_timer_check_guard] / on_to_off_action</text>
</g>
<!-- AutoOn -->
<g id="node12" class="node">
<title>AutoOn</title>
<polygon fill="none" stroke="black" points="224.5,-583.63 48.5,-583.63 48.5,-545.63 224.5,-545.63 224.5,-583.63"/>
<text text-anchor="middle" x="136.5" y="-568.43" font-family="Arial" font-size="14.00">AutoOn</text>
<text text-anchor="middle" x="136.5" y="-553.43" font-family="Arial" font-size="14.00">[_] / on_to_auto_on_action</text>
</g>
<!-- ManualOff -->
<g id="node13" class="node">
<title>ManualOff</title>
<polygon fill="none" stroke="black" points="208,-639.63 65,-639.63 65,-601.63 208,-601.63 208,-639.63"/>
<text text-anchor="middle" x="136.5" y="-624.43" font-family="Arial" font-size="14.00">ManualOff</text>
<text text-anchor="middle" x="136.5" y="-609.43" font-family="Arial" font-size="14.00">[_] / on_to_off_action</text>
</g>
</g>
</svg>
