<?xml version="1.0" encoding="UTF-8" standalone="no"?>
<!DOCTYPE svg PUBLIC "-//W3C//DTD SVG 1.1//EN"
 "http://www.w3.org/Graphics/SVG/1.1/DTD/svg11.dtd">
<!-- Generated by graphviz version 2.43.0 (0)
 -->
<!-- Title: G Pages: 1 -->
<svg width="987pt" height="378pt"
 viewBox="0.00 0.00 987.00 378.08" xmlns="http://www.w3.org/2000/svg" xmlns:xlink="http://www.w3.org/1999/xlink">
<g id="graph0" class="graph" transform="scale(1 1) rotate(0) translate(4 374.08)">
<title>G</title>
<polygon fill="white" stroke="transparent" points="-4,4 -4,-374.08 983,-374.08 983,4 -4,4"/>
<!-- s -->
<g id="node1" class="node">
<title>s</title>
<ellipse fill="black" stroke="black" cx="153.5" cy="-128.08" rx="18" ry="18"/>
<text text-anchor="middle" x="153.5" y="-124.38" font-family="Arial" font-size="14.00">s</text>
</g>
<!-- Reset -->
<g id="node2" class="node">
<title>Reset</title>
<polygon fill="#ffbb33" stroke="red" points="398,-146.08 344,-146.08 344,-110.08 398,-110.08 398,-146.08"/>
<text text-anchor="middle" x="371" y="-124.38" font-family="Arial" font-size="14.00">Reset</text>
</g>
<!-- s&#45;&gt;Reset -->
<g id="edge1" class="edge">
<title>s&#45;&gt;Reset</title>
<path fill="none" stroke="black" d="M171.77,-128.08C206.78,-128.08 286.75,-128.08 333.72,-128.08"/>
<polygon fill="black" stroke="black" points="333.78,-131.58 343.78,-128.08 333.78,-124.58 333.78,-131.58"/>
</g>
<!-- Off -->
<g id="node4" class="node">
<title>Off</title>
<polygon fill="#ffbb33" stroke="red" points="629,-147.08 453,-147.08 453,-109.08 629,-109.08 629,-147.08"/>
<text text-anchor="middle" x="541" y="-131.88" font-family="Arial" font-size="14.00">Off</text>
<text text-anchor="middle" x="541" y="-116.88" font-family="Arial" font-size="14.00">[_] / on_to_fade_off_action</text>
</g>
<!-- Reset&#45;&gt;Off -->
<g id="edge2" class="edge">
<title>Reset&#45;&gt;Off</title>
<path fill="none" stroke="blue" d="M398.25,-128.08C410.63,-128.08 426.26,-128.08 442.57,-128.08"/>
<polygon fill="blue" stroke="blue" points="442.8,-131.58 452.8,-128.08 442.8,-124.58 442.8,-131.58"/>
<text text-anchor="middle" x="425.5" y="-131.88" font-family="Arial" font-size="14.00">Init</text>
</g>
<!-- FadeOff -->
<g id="node3" class="node">
<title>FadeOff</title>
<polygon fill="#ffbb33" stroke="red" points="979,-118.08 913,-118.08 913,-82.08 979,-82.08 979,-118.08"/>
<text text-anchor="middle" x="946" y="-96.38" font-family="Arial" font-size="14.00">FadeOff</text>
</g>
<!-- FadeOff&#45;&gt;Off -->
<g id="edge3" class="edge">
<title>FadeOff&#45;&gt;Off</title>
<path fill="none" stroke="blue" d="M937.57,-118.32C929.7,-135.02 915.55,-158.79 895,-170.08 797.55,-223.62 662.43,-181 590.93,-151.05"/>
<polygon fill="blue" stroke="blue" points="592.26,-147.81 581.69,-147.1 589.51,-154.25 592.26,-147.81"/>
<text text-anchor="middle" x="766" y="-198.88" font-family="Arial" font-size="14.00">Off</text>
</g>
<!-- FadeOff&#45;&gt;Off -->
<g id="edge6" class="edge">
<title>FadeOff&#45;&gt;Off</title>
<path fill="none" stroke="blue" d="M917.15,-118.09C910.18,-121.75 902.53,-125.09 895,-127.08 810.86,-149.32 711.44,-147.19 639.58,-140.89"/>
<polygon fill="blue" stroke="blue" points="639.47,-137.36 629.19,-139.93 638.82,-144.33 639.47,-137.36"/>
<text text-anchor="middle" x="766" y="-148.88" font-family="Arial" font-size="14.00">TimerCheck</text>
</g>
<!-- On -->
<g id="node5" class="node">
<title>On</title>
<polygon fill="#ffbb33" stroke="red" points="793,-54.08 739,-54.08 739,-18.08 793,-18.08 793,-54.08"/>
<text text-anchor="middle" x="766" y="-32.38" font-family="Arial" font-size="14.00">On</text>
</g>
<!-- FadeOff&#45;&gt;On -->
<g id="edge4" class="edge">
<title>FadeOff&#45;&gt;On</title>
<path fill="none" stroke="blue" d="M912.8,-88.25C906.89,-86.15 900.77,-84.01 895,-82.08 862.35,-71.13 853.33,-70.95 821,-59.08 814.97,-56.86 808.64,-54.35 802.52,-51.81"/>
<polygon fill="blue" stroke="blue" points="803.73,-48.52 793.15,-47.85 801,-54.97 803.73,-48.52"/>
<text text-anchor="middle" x="858" y="-85.88" font-family="Arial" font-size="14.00">ManualOn</text>
</g>
<!-- FadeOff&#45;&gt;On -->
<g id="edge5" class="edge">
<title>FadeOff&#45;&gt;On</title>
<path fill="none" stroke="blue" d="M935.61,-82.03C927.12,-67.8 913.16,-48.93 895,-40.08 866.42,-26.14 829.82,-26.53 803.09,-29.58"/>
<polygon fill="blue" stroke="blue" points="802.46,-26.14 793,-30.91 803.38,-33.08 802.46,-26.14"/>
<text text-anchor="middle" x="858" y="-43.88" font-family="Arial" font-size="14.00">AutoOn</text>
</g>
<!-- Off&#45;&gt;On -->
<g id="edge7" class="edge">
<title>Off&#45;&gt;On</title>
<path fill="none" stroke="blue" d="M604.96,-108.95C637.26,-98.34 676.88,-84.06 711,-68.08 717.3,-65.13 723.81,-61.66 730.05,-58.11"/>
<polygon fill="blue" stroke="blue" points="732.06,-60.99 738.91,-52.92 728.52,-54.95 732.06,-60.99"/>
<text text-anchor="middle" x="679" y="-97.88" font-family="Arial" font-size="14.00">AutoOn</text>
</g>
<!-- Off&#45;&gt;On -->
<g id="edge8" class="edge">
<title>Off&#45;&gt;On</title>
<path fill="none" stroke="blue" d="M560.91,-108.76C580.54,-90.02 613.07,-62.53 647,-49.08 673.04,-38.76 704.68,-35.73 728.64,-35.16"/>
<polygon fill="blue" stroke="blue" points="728.77,-38.66 738.73,-35.06 728.7,-31.66 728.77,-38.66"/>
<text text-anchor="middle" x="679" y="-52.88" font-family="Arial" font-size="14.00">ManualOn</text>
</g>
<!-- On&#45;&gt;FadeOff -->
<g id="edge10" class="edge">
<title>On&#45;&gt;FadeOff</title>
<path fill="none" stroke="blue" d="M777.21,-54.19C786.53,-68.73 801.76,-88.13 821,-97.08 846.29,-108.83 877.72,-109.46 902.61,-107.22"/>
<polygon fill="blue" stroke="blue" points="903.28,-110.66 912.84,-106.1 902.52,-103.7 903.28,-110.66"/>
<text text-anchor="middle" x="858" y="-111.88" font-family="Arial" font-size="14.00">Off</text>
</g>
<!-- On&#45;&gt;FadeOff -->
<g id="edge12" class="edge">
<title>On&#45;&gt;FadeOff</title>
<path fill="none" stroke="blue" d="M793.04,-20.38C820.22,-6.23 863.24,9.71 895,-9.08 917.9,-22.63 931.02,-50.81 938.02,-72.24"/>
<polygon fill="blue" stroke="blue" points="934.67,-73.26 940.9,-81.83 941.37,-71.25 934.67,-73.26"/>
<text text-anchor="middle" x="858" y="-12.88" font-family="Arial" font-size="14.00">TimerCheck</text>
</g>
<!-- On&#45;&gt;On -->
<g id="edge9" class="edge">
<title>On&#45;&gt;On</title>
<path fill="none" stroke="blue" d="M758.22,-54.23C757.02,-63.62 759.62,-72.08 766,-72.08 769.89,-72.08 772.37,-68.94 773.45,-64.36"/>
<polygon fill="blue" stroke="blue" points="776.95,-64.34 773.78,-54.23 769.95,-64.11 776.95,-64.34"/>
<text text-anchor="middle" x="766" y="-75.88" font-family="Arial" font-size="14.00">ManualOn</text>
</g>
<!-- On&#45;&gt;On -->
<g id="edge11" class="edge">
<title>On&#45;&gt;On</title>
<path fill="none" stroke="blue" d="M752.96,-54.33C746.2,-71.48 750.55,-90.08 766,-90.08 778.56,-90.08 783.78,-77.8 781.67,-64"/>
<polygon fill="blue" stroke="blue" points="785.04,-63.06 779.04,-54.33 778.29,-64.9 785.04,-63.06"/>
<text text-anchor="middle" x="766" y="-93.88" font-family="Arial" font-size="14.00">AutoOn</text>
</g>
<!-- Init -->
<g id="node6" class="node">
<title>Init</title>
<polygon fill="none" stroke="black" points="205.5,-202.08 101.5,-202.08 101.5,-164.08 205.5,-164.08 205.5,-202.08"/>
<text text-anchor="middle" x="153.5" y="-186.88" font-family="Arial" font-size="14.00">Init</text>
<text text-anchor="middle" x="153.5" y="-171.88" font-family="Arial" font-size="14.00">[_] / init_action</text>
</g>
<!-- ManualOn -->
<g id="node7" class="node">
<title>ManualOn</title>
<polygon fill="none" stroke="black" points="251,-258.08 56,-258.08 56,-220.08 251,-220.08 251,-258.08"/>
<text text-anchor="middle" x="153.5" y="-242.88" font-family="Arial" font-size="14.00">ManualOn</text>
<text text-anchor="middle" x="153.5" y="-227.88" font-family="Arial" font-size="14.00">[_] / manual_on_to_on_action</text>
</g>
<!-- AutoOn -->
<g id="node8" class="node">
<title>AutoOn</title>
<polygon fill="none" stroke="black" points="241.5,-314.08 65.5,-314.08 65.5,-276.08 241.5,-276.08 241.5,-314.08"/>
<text text-anchor="middle" x="153.5" y="-298.88" font-family="Arial" font-size="14.00">AutoOn</text>
<text text-anchor="middle" x="153.5" y="-283.88" font-family="Arial" font-size="14.00">[_] / auto_on_to_on_action</text>
</g>
<!-- TimerCheck -->
<g id="node9" class="node">
<title>TimerCheck</title>
<polygon fill="none" stroke="black" points="307,-370.08 0,-370.08 0,-332.08 307,-332.08 307,-370.08"/>
<text text-anchor="middle" x="153.5" y="-354.88" font-family="Arial" font-size="14.00">TimerCheck</text>
<text text-anchor="middle" x="153.5" y="-339.88" font-family="Arial" font-size="14.00">[on_timer_check_guard] / on_to_fade_off_action</text>
</g>
</g>
</svg>
