<?xml version="1.0" encoding="UTF-8" standalone="no"?>
<!DOCTYPE svg PUBLIC "-//W3C//DTD SVG 1.1//EN"
 "http://www.w3.org/Graphics/SVG/1.1/DTD/svg11.dtd">
<!-- Generated by graphviz version 2.43.0 (0)
 -->
<!-- Title: G Pages: 1 -->
<svg width="949pt" height="327pt"
 viewBox="0.00 0.00 949.00 326.61" xmlns="http://www.w3.org/2000/svg" xmlns:xlink="http://www.w3.org/1999/xlink">
<g id="graph0" class="graph" transform="scale(1 1) rotate(0) translate(4 322.61)">
<title>G</title>
<polygon fill="white" stroke="transparent" points="-4,4 -4,-322.61 945,-322.61 945,4 -4,4"/>
<!-- s -->
<g id="node1" class="node">
<title>s</title>
<ellipse fill="black" stroke="black" cx="177" cy="-160.61" rx="18" ry="18"/>
<text text-anchor="middle" x="177" y="-156.91" font-family="Arial" font-size="14.00">s</text>
</g>
<!-- Reset -->
<g id="node2" class="node">
<title>Reset</title>
<polygon fill="#ffbb33" stroke="red" points="445,-178.61 391,-178.61 391,-142.61 445,-142.61 445,-178.61"/>
<text text-anchor="middle" x="418" y="-156.91" font-family="Arial" font-size="14.00">Reset</text>
</g>
<!-- s&#45;&gt;Reset -->
<g id="edge1" class="edge">
<title>s&#45;&gt;Reset</title>
<path fill="none" stroke="black" d="M195.19,-160.61C233.84,-160.61 328.31,-160.61 380.64,-160.61"/>
<polygon fill="black" stroke="black" points="380.82,-164.11 390.82,-160.61 380.82,-157.11 380.82,-164.11"/>
</g>
<!-- Off -->
<g id="node4" class="node">
<title>Off</title>
<polygon fill="#ffbb33" stroke="red" points="652,-179.61 500,-179.61 500,-141.61 652,-141.61 652,-179.61"/>
<text text-anchor="middle" x="576" y="-164.41" font-family="Arial" font-size="14.00">Off</text>
<text text-anchor="middle" x="576" y="-149.41" font-family="Arial" font-size="14.00">[_] / mm_to_off_action</text>
</g>
<!-- Reset&#45;&gt;Off -->
<g id="edge9" class="edge">
<title>Reset&#45;&gt;Off</title>
<path fill="none" stroke="blue" d="M445.11,-160.61C457.68,-160.61 473.54,-160.61 489.82,-160.61"/>
<polygon fill="blue" stroke="blue" points="489.99,-164.11 499.99,-160.61 489.99,-157.11 489.99,-164.11"/>
<text text-anchor="middle" x="472.5" y="-164.41" font-family="Arial" font-size="14.00">Init</text>
</g>
<!-- AutoOn -->
<g id="node3" class="node">
<title>AutoOn</title>
<polygon fill="#ffbb33" stroke="red" points="922,-293.61 787,-293.61 787,-255.61 922,-255.61 922,-293.61"/>
<text text-anchor="middle" x="854.5" y="-278.41" font-family="Arial" font-size="14.00">AutoOn</text>
<text text-anchor="middle" x="854.5" y="-263.41" font-family="Arial" font-size="14.00">[_] / auto_on_action</text>
</g>
<!-- AutoOn&#45;&gt;Off -->
<g id="edge7" class="edge">
<title>AutoOn&#45;&gt;Off</title>
<path fill="none" stroke="blue" d="M786.6,-271.13C742.83,-268 690.16,-262.34 670,-252.61 639.66,-237.97 613.26,-209.42 596.42,-187.98"/>
<polygon fill="blue" stroke="blue" points="599.08,-185.7 590.23,-179.87 593.52,-189.95 599.08,-185.7"/>
<text text-anchor="middle" x="710" y="-270.41" font-family="Arial" font-size="14.00">Off</text>
</g>
<!-- AutoOn&#45;&gt;Off -->
<g id="edge8" class="edge">
<title>AutoOn&#45;&gt;Off</title>
<path fill="none" stroke="blue" d="M807.07,-255.47C758.96,-235.63 683.78,-204.64 632.55,-183.52"/>
<polygon fill="blue" stroke="blue" points="633.86,-180.27 623.28,-179.69 631.19,-186.74 633.86,-180.27"/>
<text text-anchor="middle" x="710" y="-234.41" font-family="Arial" font-size="14.00">TimerCheck</text>
</g>
<!-- Off&#45;&gt;AutoOn -->
<g id="edge5" class="edge">
<title>Off&#45;&gt;AutoOn</title>
<path fill="none" stroke="blue" d="M583.96,-179.65C596.11,-209.7 624.34,-267.14 670,-290.61 707.07,-309.67 753.97,-305.17 791.07,-296.17"/>
<polygon fill="blue" stroke="blue" points="791.96,-299.55 800.77,-293.66 790.21,-292.77 791.96,-299.55"/>
<text text-anchor="middle" x="710" y="-307.41" font-family="Arial" font-size="14.00">AutoOn</text>
</g>
<!-- ManualMode -->
<g id="node5" class="node">
<title>ManualMode</title>
<polygon fill="#ffbb33" stroke="red" points="941,-179.61 768,-179.61 768,-141.61 941,-141.61 941,-179.61"/>
<text text-anchor="middle" x="854.5" y="-164.41" font-family="Arial" font-size="14.00">ManualMode</text>
<text text-anchor="middle" x="854.5" y="-149.41" font-family="Arial" font-size="14.00">[_] / manual_mode_action</text>
</g>
<!-- Off&#45;&gt;ManualMode -->
<g id="edge6" class="edge">
<title>Off&#45;&gt;ManualMode</title>
<path fill="none" stroke="blue" d="M652.23,-174.67C658.23,-175.45 664.21,-176.12 670,-176.61 705.43,-179.64 714.55,-179.34 750,-176.61 752.54,-176.42 755.11,-176.2 757.7,-175.95"/>
<polygon fill="blue" stroke="blue" points="758.19,-179.42 767.77,-174.9 757.46,-172.46 758.19,-179.42"/>
<text text-anchor="middle" x="710" y="-182.41" font-family="Arial" font-size="14.00">ManualMode</text>
</g>
<!-- ManualColor -->
<g id="node6" class="node">
<title>ManualColor</title>
<polygon fill="#ffbb33" stroke="red" points="938.5,-65.61 770.5,-65.61 770.5,-27.61 938.5,-27.61 938.5,-65.61"/>
<text text-anchor="middle" x="854.5" y="-50.41" font-family="Arial" font-size="14.00">ManualColor</text>
<text text-anchor="middle" x="854.5" y="-35.41" font-family="Arial" font-size="14.00">[_] / manual_color_action</text>
</g>
<!-- Off&#45;&gt;ManualColor -->
<g id="edge4" class="edge">
<title>Off&#45;&gt;ManualColor</title>
<path fill="none" stroke="blue" d="M613.25,-141.58C630.28,-132.93 650.98,-122.81 670,-114.61 708.5,-98.01 752.52,-81.62 787.79,-69.08"/>
<polygon fill="blue" stroke="blue" points="789.23,-72.29 797.5,-65.65 786.9,-65.69 789.23,-72.29"/>
<text text-anchor="middle" x="710" y="-118.41" font-family="Arial" font-size="14.00">ManualColor</text>
</g>
<!-- ManualMode&#45;&gt;Off -->
<g id="edge10" class="edge">
<title>ManualMode&#45;&gt;Off</title>
<path fill="none" stroke="blue" d="M767.94,-157.94C761.87,-157.81 755.84,-157.7 750,-157.61 714.45,-157.1 705.55,-157.04 670,-157.61 667.46,-157.65 664.87,-157.7 662.27,-157.75"/>
<polygon fill="blue" stroke="blue" points="662.04,-154.26 652.12,-157.98 662.19,-161.26 662.04,-154.26"/>
<text text-anchor="middle" x="710" y="-161.41" font-family="Arial" font-size="14.00">Off</text>
</g>
<!-- ManualMode&#45;&gt;Off -->
<g id="edge11" class="edge">
<title>ManualMode&#45;&gt;Off</title>
<path fill="none" stroke="blue" d="M776.66,-141.59C767.72,-139.96 758.69,-138.57 750,-137.61 714.66,-133.73 705.29,-133.31 670,-137.61 665.47,-138.16 660.83,-138.86 656.18,-139.67"/>
<polygon fill="blue" stroke="blue" points="655.15,-136.3 645.98,-141.59 656.45,-143.18 655.15,-136.3"/>
<text text-anchor="middle" x="710" y="-141.41" font-family="Arial" font-size="14.00">TimerCheck</text>
</g>
<!-- ManualColor&#45;&gt;Off -->
<g id="edge2" class="edge">
<title>ManualColor&#45;&gt;Off</title>
<path fill="none" stroke="blue" d="M770.2,-32.33C737.55,-30.42 700.64,-33.04 670,-47.61 633.26,-65.08 606.1,-104.9 590.9,-132.28"/>
<polygon fill="blue" stroke="blue" points="587.66,-130.92 586.03,-141.39 593.83,-134.22 587.66,-130.92"/>
<text text-anchor="middle" x="710" y="-51.41" font-family="Arial" font-size="14.00">Off</text>
</g>
<!-- ManualColor&#45;&gt;Off -->
<g id="edge3" class="edge">
<title>ManualColor&#45;&gt;Off</title>
<path fill="none" stroke="blue" d="M819.21,-27.48C780.64,-8.75 717.21,13.48 670,-12.61 624.19,-37.93 597.89,-96.31 585.61,-131.71"/>
<polygon fill="blue" stroke="blue" points="582.2,-130.88 582.38,-141.47 588.85,-133.08 582.2,-130.88"/>
<text text-anchor="middle" x="710" y="-16.41" font-family="Arial" font-size="14.00">TimerCheck</text>
</g>
<!-- TimerCheck -->
<g id="node7" class="node">
<title>TimerCheck</title>
<polygon fill="none" stroke="black" points="354,-234.61 0,-234.61 0,-196.61 354,-196.61 354,-234.61"/>
<text text-anchor="middle" x="177" y="-219.41" font-family="Arial" font-size="14.00">TimerCheck</text>
<text text-anchor="middle" x="177" y="-204.41" font-family="Arial" font-size="14.00">[manual_mode_timer_check_guard] / mm_to_off_action</text>
</g>
<!-- Init -->
<g id="node8" class="node">
<title>Init</title>
<polygon fill="none" stroke="black" points="229,-290.61 125,-290.61 125,-252.61 229,-252.61 229,-290.61"/>
<text text-anchor="middle" x="177" y="-275.41" font-family="Arial" font-size="14.00">Init</text>
<text text-anchor="middle" x="177" y="-260.41" font-family="Arial" font-size="14.00">[_] / init_action</text>
</g>
</g>
</svg>
