<?xml version="1.0" encoding="UTF-8" standalone="no"?>
<!DOCTYPE svg PUBLIC "-//W3C//DTD SVG 1.1//EN"
 "http://www.w3.org/Graphics/SVG/1.1/DTD/svg11.dtd">
<!-- Generated by graphviz version 2.43.0 (0)
 -->
<!-- Title: G Pages: 1 -->
<svg width="650pt" height="420pt"
 viewBox="0.00 0.00 650.00 419.93" xmlns="http://www.w3.org/2000/svg" xmlns:xlink="http://www.w3.org/1999/xlink">
<g id="graph0" class="graph" transform="scale(1 1) rotate(0) translate(4 415.93)">
<title>G</title>
<polygon fill="white" stroke="transparent" points="-4,4 -4,-415.93 646,-415.93 646,4 -4,4"/>
<!-- s -->
<g id="node1" class="node">
<title>s</title>
<ellipse fill="black" stroke="black" cx="136.5" cy="-57.93" rx="18" ry="18"/>
<text text-anchor="middle" x="136.5" y="-54.23" font-family="Arial" font-size="14.00">s</text>
</g>
<!-- Reset -->
<g id="node2" class="node">
<title>Reset</title>
<polygon fill="#ffbb33" stroke="red" points="364,-75.93 310,-75.93 310,-39.93 364,-39.93 364,-75.93"/>
<text text-anchor="middle" x="337" y="-54.23" font-family="Arial" font-size="14.00">Reset</text>
</g>
<!-- s&#45;&gt;Reset -->
<g id="edge1" class="edge">
<title>s&#45;&gt;Reset</title>
<path fill="none" stroke="black" d="M154.77,-57.93C187.01,-57.93 256.98,-57.93 299.93,-57.93"/>
<polygon fill="black" stroke="black" points="299.97,-61.43 309.97,-57.93 299.97,-54.43 299.97,-61.43"/>
</g>
<!-- Off -->
<g id="node3" class="node">
<title>Off</title>
<polygon fill="#ffbb33" stroke="red" points="473,-75.93 419,-75.93 419,-39.93 473,-39.93 473,-75.93"/>
<text text-anchor="middle" x="446" y="-54.23" font-family="Arial" font-size="14.00">Off</text>
</g>
<!-- Reset&#45;&gt;Off -->
<g id="edge2" class="edge">
<title>Reset&#45;&gt;Off</title>
<path fill="none" stroke="blue" d="M364.18,-57.93C377.52,-57.93 393.96,-57.93 408.52,-57.93"/>
<polygon fill="blue" stroke="blue" points="408.72,-61.43 418.72,-57.93 408.72,-54.43 408.72,-61.43"/>
<text text-anchor="middle" x="391.5" y="-61.73" font-family="Arial" font-size="14.00">Init</text>
</g>
<!-- Off&#45;&gt;Off -->
<g id="edge4" class="edge">
<title>Off&#45;&gt;Off</title>
<path fill="none" stroke="blue" d="M436.23,-76.09C434.73,-85.47 437.98,-93.93 446,-93.93 450.88,-93.93 454,-90.79 455.35,-86.21"/>
<polygon fill="blue" stroke="blue" points="458.85,-86.22 455.77,-76.09 451.86,-85.93 458.85,-86.22"/>
<text text-anchor="middle" x="446" y="-97.73" font-family="Arial" font-size="14.00">TimerCheck</text>
</g>
<!-- On -->
<g id="node4" class="node">
<title>On</title>
<polygon fill="#ffbb33" stroke="red" points="637,-75.93 583,-75.93 583,-39.93 637,-39.93 637,-75.93"/>
<text text-anchor="middle" x="610" y="-54.23" font-family="Arial" font-size="14.00">On</text>
</g>
<!-- Off&#45;&gt;On -->
<g id="edge3" class="edge">
<title>Off&#45;&gt;On</title>
<path fill="none" stroke="blue" d="M456.18,-76.14C463.65,-88.75 475.49,-104.56 491,-111.93 520.71,-126.05 535.29,-126.05 565,-111.93 577.12,-106.18 587,-95.27 594.3,-84.75"/>
<polygon fill="blue" stroke="blue" points="597.37,-86.44 599.82,-76.14 591.48,-82.67 597.37,-86.44"/>
<text text-anchor="middle" x="528" y="-125.73" font-family="Arial" font-size="14.00">Fade</text>
</g>
<!-- Off&#45;&gt;On -->
<g id="edge5" class="edge">
<title>Off&#45;&gt;On</title>
<path fill="none" stroke="blue" d="M473.11,-69.11C478.9,-71.11 485.08,-72.89 491,-73.93 523.39,-79.64 532.61,-79.64 565,-73.93 567.68,-73.46 570.42,-72.84 573.15,-72.11"/>
<polygon fill="blue" stroke="blue" points="574.36,-75.4 582.89,-69.11 572.3,-68.71 574.36,-75.4"/>
<text text-anchor="middle" x="528" y="-81.73" font-family="Arial" font-size="14.00">ManualOn</text>
</g>
<!-- Off&#45;&gt;On -->
<g id="edge6" class="edge">
<title>Off&#45;&gt;On</title>
<path fill="none" stroke="blue" d="M473.04,-55.86C478.94,-55.48 485.18,-55.13 491,-54.93 523.87,-53.81 532.13,-53.81 565,-54.93 567.54,-55.02 570.17,-55.13 572.81,-55.27"/>
<polygon fill="blue" stroke="blue" points="572.77,-58.77 582.96,-55.86 573.18,-51.78 572.77,-58.77"/>
<text text-anchor="middle" x="528" y="-58.73" font-family="Arial" font-size="14.00">AutoOn</text>
</g>
<!-- On&#45;&gt;Off -->
<g id="edge7" class="edge">
<title>On&#45;&gt;Off</title>
<path fill="none" stroke="blue" d="M582.82,-41.66C577.14,-38.88 571.03,-36.41 565,-34.93 533.06,-27.09 522.94,-27.09 491,-34.93 488.17,-35.63 485.33,-36.54 482.52,-37.6"/>
<polygon fill="blue" stroke="blue" points="480.95,-34.46 473.18,-41.66 483.74,-40.88 480.95,-34.46"/>
<text text-anchor="middle" x="528" y="-38.73" font-family="Arial" font-size="14.00">TimerCheck</text>
</g>
<!-- On&#45;&gt;Off -->
<g id="edge10" class="edge">
<title>On&#45;&gt;Off</title>
<path fill="none" stroke="blue" d="M597.99,-39.77C590.27,-28.9 578.87,-16.03 565,-9.93 534.9,3.31 521.1,3.31 491,-9.93 480.49,-14.55 471.4,-23.06 464.25,-31.65"/>
<polygon fill="blue" stroke="blue" points="461.32,-29.71 458.01,-39.77 466.87,-33.97 461.32,-29.71"/>
<text text-anchor="middle" x="528" y="-13.73" font-family="Arial" font-size="14.00">ManualOff</text>
</g>
<!-- On&#45;&gt;On -->
<g id="edge8" class="edge">
<title>On&#45;&gt;On</title>
<path fill="none" stroke="blue" d="M605.06,-76.09C604.29,-85.47 605.94,-93.93 610,-93.93 612.47,-93.93 614.05,-90.79 614.73,-86.21"/>
<polygon fill="blue" stroke="blue" points="618.24,-86.16 614.94,-76.09 611.24,-86.01 618.24,-86.16"/>
<text text-anchor="middle" x="610" y="-97.73" font-family="Arial" font-size="14.00">AutoOn</text>
</g>
<!-- On&#45;&gt;On -->
<g id="edge9" class="edge">
<title>On&#45;&gt;On</title>
<path fill="none" stroke="blue" d="M601.71,-76.19C597.41,-93.33 600.18,-111.93 610,-111.93 617.9,-111.93 621.24,-99.89 620,-86.25"/>
<polygon fill="blue" stroke="blue" points="623.41,-85.46 618.29,-76.19 616.51,-86.64 623.41,-85.46"/>
<text text-anchor="middle" x="610" y="-115.73" font-family="Arial" font-size="14.00">Fade</text>
</g>
<!-- On&#45;&gt;On -->
<g id="edge11" class="edge">
<title>On&#45;&gt;On</title>
<path fill="none" stroke="blue" d="M599.63,-76.01C590.45,-100.34 593.9,-129.93 610,-129.93 624.02,-129.93 628.45,-107.48 623.29,-85.61"/>
<polygon fill="blue" stroke="blue" points="626.63,-84.56 620.37,-76.01 619.94,-86.6 626.63,-84.56"/>
<text text-anchor="middle" x="610" y="-133.73" font-family="Arial" font-size="14.00">ManualOn</text>
</g>
<!-- Init -->
<g id="node5" class="node">
<title>Init</title>
<polygon fill="none" stroke="black" points="188.5,-131.93 84.5,-131.93 84.5,-93.93 188.5,-93.93 188.5,-131.93"/>
<text text-anchor="middle" x="136.5" y="-116.73" font-family="Arial" font-size="14.00">Init</text>
<text text-anchor="middle" x="136.5" y="-101.73" font-family="Arial" font-size="14.00">[_] / init_action</text>
</g>
<!-- Fade -->
<g id="node6" class="node">
<title>Fade</title>
<polygon fill="none" stroke="black" points="224.5,-187.93 48.5,-187.93 48.5,-149.93 224.5,-149.93 224.5,-187.93"/>
<text text-anchor="middle" x="136.5" y="-172.73" font-family="Arial" font-size="14.00">Fade</text>
<text text-anchor="middle" x="136.5" y="-157.73" font-family="Arial" font-size="14.00">[_] / on_to_fade_on_action</text>
</g>
<!-- TimerCheck -->
<g id="node7" class="node">
<title>TimerCheck</title>
<polygon fill="none" stroke="black" points="273,-243.93 0,-243.93 0,-205.93 273,-205.93 273,-243.93"/>
<text text-anchor="middle" x="136.5" y="-228.73" font-family="Arial" font-size="14.00">TimerCheck</text>
<text text-anchor="middle" x="136.5" y="-213.73" font-family="Arial" font-size="14.00">[on_timer_check_guard] / on_to_off_action</text>
</g>
<!-- ManualOn -->
<g id="node8" class="node">
<title>ManualOn</title>
<polygon fill="none" stroke="black" points="234,-299.93 39,-299.93 39,-261.93 234,-261.93 234,-299.93"/>
<text text-anchor="middle" x="136.5" y="-284.73" font-family="Arial" font-size="14.00">ManualOn</text>
<text text-anchor="middle" x="136.5" y="-269.73" font-family="Arial" font-size="14.00">[_] / on_to_manual_on_action</text>
</g>
<!-- AutoOn -->
<g id="node9" class="node">
<title>AutoOn</title>
<polygon fill="none" stroke="black" points="224.5,-355.93 48.5,-355.93 48.5,-317.93 224.5,-317.93 224.5,-355.93"/>
<text text-anchor="middle" x="136.5" y="-340.73" font-family="Arial" font-size="14.00">AutoOn</text>
<text text-anchor="middle" x="136.5" y="-325.73" font-family="Arial" font-size="14.00">[_] / on_to_auto_on_action</text>
</g>
<!-- ManualOff -->
<g id="node10" class="node">
<title>ManualOff</title>
<polygon fill="none" stroke="black" points="208,-411.93 65,-411.93 65,-373.93 208,-373.93 208,-411.93"/>
<text text-anchor="middle" x="136.5" y="-396.73" font-family="Arial" font-size="14.00">ManualOff</text>
<text text-anchor="middle" x="136.5" y="-381.73" font-family="Arial" font-size="14.00">[_] / on_to_off_action</text>
</g>
</g>
</svg>
