<?xml version="1.0" encoding="UTF-8" standalone="no"?>
<!DOCTYPE svg PUBLIC "-//W3C//DTD SVG 1.1//EN"
 "http://www.w3.org/Graphics/SVG/1.1/DTD/svg11.dtd">
<!-- Generated by graphviz version 2.43.0 (0)
 -->
<!-- Title: G Pages: 1 -->
<svg width="739pt" height="300pt"
 viewBox="0.00 0.00 739.00 299.61" xmlns="http://www.w3.org/2000/svg" xmlns:xlink="http://www.w3.org/1999/xlink">
<g id="graph0" class="graph" transform="scale(1 1) rotate(0) translate(4 295.61)">
<title>G</title>
<polygon fill="white" stroke="transparent" points="-4,4 -4,-295.61 735,-295.61 735,4 -4,4"/>
<!-- s -->
<g id="node1" class="node">
<title>s</title>
<ellipse fill="black" stroke="black" cx="136.5" cy="-49.61" rx="18" ry="18"/>
<text text-anchor="middle" x="136.5" y="-45.91" font-family="Arial" font-size="14.00">s</text>
</g>
<!-- Reset -->
<g id="node2" class="node">
<title>Reset</title>
<polygon fill="#ffbb33" stroke="red" points="364,-67.61 310,-67.61 310,-31.61 364,-31.61 364,-67.61"/>
<text text-anchor="middle" x="337" y="-45.91" font-family="Arial" font-size="14.00">Reset</text>
</g>
<!-- s&#45;&gt;Reset -->
<g id="edge1" class="edge">
<title>s&#45;&gt;Reset</title>
<path fill="none" stroke="black" d="M154.77,-49.61C187.01,-49.61 256.98,-49.61 299.93,-49.61"/>
<polygon fill="black" stroke="black" points="299.97,-53.11 309.97,-49.61 299.97,-46.11 299.97,-53.11"/>
</g>
<!-- Off -->
<g id="node3" class="node">
<title>Off</title>
<polygon fill="#ffbb33" stroke="red" points="562,-68.61 419,-68.61 419,-30.61 562,-30.61 562,-68.61"/>
<text text-anchor="middle" x="490.5" y="-53.41" font-family="Arial" font-size="14.00">Off</text>
<text text-anchor="middle" x="490.5" y="-38.41" font-family="Arial" font-size="14.00">[_] / on_to_off_action</text>
</g>
<!-- Reset&#45;&gt;Off -->
<g id="edge2" class="edge">
<title>Reset&#45;&gt;Off</title>
<path fill="none" stroke="blue" d="M364.04,-49.61C376.65,-49.61 392.56,-49.61 408.76,-49.61"/>
<polygon fill="blue" stroke="blue" points="408.87,-53.11 418.87,-49.61 408.87,-46.11 408.87,-53.11"/>
<text text-anchor="middle" x="391.5" y="-53.41" font-family="Arial" font-size="14.00">Init</text>
</g>
<!-- On -->
<g id="node4" class="node">
<title>On</title>
<polygon fill="#ffbb33" stroke="red" points="726,-67.61 672,-67.61 672,-31.61 726,-31.61 726,-67.61"/>
<text text-anchor="middle" x="699" y="-45.91" font-family="Arial" font-size="14.00">On</text>
</g>
<!-- Off&#45;&gt;On -->
<g id="edge3" class="edge">
<title>Off&#45;&gt;On</title>
<path fill="none" stroke="blue" d="M528.03,-68.69C561.43,-83.52 611.91,-99.31 654,-84.61 660.69,-82.27 667.12,-78.45 672.9,-74.17"/>
<polygon fill="blue" stroke="blue" points="675.32,-76.72 680.86,-67.69 670.9,-71.29 675.32,-76.72"/>
<text text-anchor="middle" x="617" y="-93.41" font-family="Arial" font-size="14.00">AutoOn</text>
</g>
<!-- Off&#45;&gt;On -->
<g id="edge4" class="edge">
<title>Off&#45;&gt;On</title>
<path fill="none" stroke="blue" d="M562.28,-49.61C595.67,-49.61 634.11,-49.61 661.54,-49.61"/>
<polygon fill="blue" stroke="blue" points="661.84,-53.11 671.84,-49.61 661.84,-46.11 661.84,-53.11"/>
<text text-anchor="middle" x="617" y="-53.41" font-family="Arial" font-size="14.00">ManualOn</text>
</g>
<!-- On&#45;&gt;Off -->
<g id="edge5" class="edge">
<title>On&#45;&gt;Off</title>
<path fill="none" stroke="blue" d="M671.58,-36.15C665.91,-33.86 659.87,-31.82 654,-30.61 627.61,-25.16 598.46,-26.35 572.22,-30.02"/>
<polygon fill="blue" stroke="blue" points="571.67,-26.57 562.32,-31.54 572.73,-33.48 571.67,-26.57"/>
<text text-anchor="middle" x="617" y="-34.41" font-family="Arial" font-size="14.00">Off</text>
</g>
<!-- On&#45;&gt;Off -->
<g id="edge6" class="edge">
<title>On&#45;&gt;Off</title>
<path fill="none" stroke="blue" d="M684.66,-31.51C676.86,-22.49 666.16,-12.48 654,-7.61 623.47,4.62 612.09,-0.38 580,-7.61 563.67,-11.29 546.81,-18.35 532.25,-25.64"/>
<polygon fill="blue" stroke="blue" points="530.29,-22.72 523.04,-30.44 533.52,-28.93 530.29,-22.72"/>
<text text-anchor="middle" x="617" y="-11.41" font-family="Arial" font-size="14.00">TimerCheck</text>
</g>
<!-- On&#45;&gt;On -->
<g id="edge7" class="edge">
<title>On&#45;&gt;On</title>
<path fill="none" stroke="blue" d="M691.58,-67.76C690.44,-77.15 692.91,-85.61 699,-85.61 702.71,-85.61 705.08,-82.47 706.1,-77.89"/>
<polygon fill="blue" stroke="blue" points="709.6,-77.87 706.42,-67.76 702.61,-77.65 709.6,-77.87"/>
<text text-anchor="middle" x="699" y="-89.41" font-family="Arial" font-size="14.00">AutoOn</text>
</g>
<!-- On&#45;&gt;On -->
<g id="edge8" class="edge">
<title>On&#45;&gt;On</title>
<path fill="none" stroke="blue" d="M686.57,-67.87C680.12,-85.01 684.27,-103.61 699,-103.61 710.86,-103.61 715.86,-91.57 714,-77.93"/>
<polygon fill="blue" stroke="blue" points="717.29,-76.69 711.43,-67.87 710.51,-78.42 717.29,-76.69"/>
<text text-anchor="middle" x="699" y="-107.41" font-family="Arial" font-size="14.00">ManualOn</text>
</g>
<!-- Init -->
<g id="node5" class="node">
<title>Init</title>
<polygon fill="none" stroke="black" points="188.5,-123.61 84.5,-123.61 84.5,-85.61 188.5,-85.61 188.5,-123.61"/>
<text text-anchor="middle" x="136.5" y="-108.41" font-family="Arial" font-size="14.00">Init</text>
<text text-anchor="middle" x="136.5" y="-93.41" font-family="Arial" font-size="14.00">[_] / init_action</text>
</g>
<!-- AutoOn -->
<g id="node6" class="node">
<title>AutoOn</title>
<polygon fill="none" stroke="black" points="224.5,-179.61 48.5,-179.61 48.5,-141.61 224.5,-141.61 224.5,-179.61"/>
<text text-anchor="middle" x="136.5" y="-164.41" font-family="Arial" font-size="14.00">AutoOn</text>
<text text-anchor="middle" x="136.5" y="-149.41" font-family="Arial" font-size="14.00">[_] / auto_on_to_on_action</text>
</g>
<!-- ManualOn -->
<g id="node7" class="node">
<title>ManualOn</title>
<polygon fill="none" stroke="black" points="234,-235.61 39,-235.61 39,-197.61 234,-197.61 234,-235.61"/>
<text text-anchor="middle" x="136.5" y="-220.41" font-family="Arial" font-size="14.00">ManualOn</text>
<text text-anchor="middle" x="136.5" y="-205.41" font-family="Arial" font-size="14.00">[_] / manual_on_to_on_action</text>
</g>
<!-- TimerCheck -->
<g id="node8" class="node">
<title>TimerCheck</title>
<polygon fill="none" stroke="black" points="273,-291.61 0,-291.61 0,-253.61 273,-253.61 273,-291.61"/>
<text text-anchor="middle" x="136.5" y="-276.41" font-family="Arial" font-size="14.00">TimerCheck</text>
<text text-anchor="middle" x="136.5" y="-261.41" font-family="Arial" font-size="14.00">[on_timer_check_guard] / on_to_off_action</text>
</g>
</g>
</svg>
