<?xml version="1.0" encoding="UTF-8" standalone="no"?>
<!DOCTYPE svg PUBLIC "-//W3C//DTD SVG 1.1//EN"
 "http://www.w3.org/Graphics/SVG/1.1/DTD/svg11.dtd">
<!-- Generated by graphviz version 2.43.0 (0)
 -->
<!-- Title: G Pages: 1 -->
<svg width="933pt" height="328pt"
 viewBox="0.00 0.00 933.00 327.78" xmlns="http://www.w3.org/2000/svg" xmlns:xlink="http://www.w3.org/1999/xlink">
<g id="graph0" class="graph" transform="scale(1 1) rotate(0) translate(4 323.78)">
<title>G</title>
<polygon fill="white" stroke="transparent" points="-4,4 -4,-323.78 929,-323.78 929,4 -4,4"/>
<!-- s -->
<g id="node1" class="node">
<title>s</title>
<ellipse fill="black" stroke="black" cx="172" cy="-161.78" rx="18" ry="18"/>
<text text-anchor="middle" x="172" y="-158.08" font-family="Arial" font-size="14.00">s</text>
</g>
<!-- Reset -->
<g id="node2" class="node">
<title>Reset</title>
<polygon fill="#ffbb33" stroke="red" points="435,-179.78 381,-179.78 381,-143.78 435,-143.78 435,-179.78"/>
<text text-anchor="middle" x="408" y="-158.08" font-family="Arial" font-size="14.00">Reset</text>
</g>
<!-- s&#45;&gt;Reset -->
<g id="edge1" class="edge">
<title>s&#45;&gt;Reset</title>
<path fill="none" stroke="black" d="M190.21,-161.78C228.04,-161.78 319.18,-161.78 370.43,-161.78"/>
<polygon fill="black" stroke="black" points="370.73,-165.28 380.73,-161.78 370.73,-158.28 370.73,-165.28"/>
</g>
<!-- Off -->
<g id="node3" class="node">
<title>Off</title>
<polygon fill="#ffbb33" stroke="red" points="636,-180.78 490,-180.78 490,-142.78 636,-142.78 636,-180.78"/>
<text text-anchor="middle" x="563" y="-165.58" font-family="Arial" font-size="14.00">Off</text>
<text text-anchor="middle" x="563" y="-150.58" font-family="Arial" font-size="14.00">[_] / mc_to_off_action</text>
</g>
<!-- Reset&#45;&gt;Off -->
<g id="edge11" class="edge">
<title>Reset&#45;&gt;Off</title>
<path fill="none" stroke="blue" d="M435.3,-161.78C447.83,-161.78 463.56,-161.78 479.65,-161.78"/>
<polygon fill="blue" stroke="blue" points="479.68,-165.28 489.68,-161.78 479.68,-158.28 479.68,-165.28"/>
<text text-anchor="middle" x="462.5" y="-165.58" font-family="Arial" font-size="14.00">Init</text>
</g>
<!-- ManualMode -->
<g id="node4" class="node">
<title>ManualMode</title>
<polygon fill="#ffbb33" stroke="red" points="925,-294.78 752,-294.78 752,-256.78 925,-256.78 925,-294.78"/>
<text text-anchor="middle" x="838.5" y="-279.58" font-family="Arial" font-size="14.00">ManualMode</text>
<text text-anchor="middle" x="838.5" y="-264.58" font-family="Arial" font-size="14.00">[_] / manual_mode_action</text>
</g>
<!-- Off&#45;&gt;ManualMode -->
<g id="edge10" class="edge">
<title>Off&#45;&gt;ManualMode</title>
<path fill="none" stroke="blue" d="M570.55,-180.8C582.05,-210.82 609.02,-268.21 654,-291.78 691.18,-311.26 738.48,-306.56 775.75,-297.35"/>
<polygon fill="blue" stroke="blue" points="776.7,-300.72 785.48,-294.79 774.92,-293.95 776.7,-300.72"/>
<text text-anchor="middle" x="694" y="-308.58" font-family="Arial" font-size="14.00">ManualMode</text>
</g>
<!-- ManualColor -->
<g id="node5" class="node">
<title>ManualColor</title>
<polygon fill="#ffbb33" stroke="red" points="922.5,-180.78 754.5,-180.78 754.5,-142.78 922.5,-142.78 922.5,-180.78"/>
<text text-anchor="middle" x="838.5" y="-165.58" font-family="Arial" font-size="14.00">ManualColor</text>
<text text-anchor="middle" x="838.5" y="-150.58" font-family="Arial" font-size="14.00">[_] / manual_color_action</text>
</g>
<!-- Off&#45;&gt;ManualColor -->
<g id="edge9" class="edge">
<title>Off&#45;&gt;ManualColor</title>
<path fill="none" stroke="blue" d="M636.06,-175.74C642.11,-176.57 648.15,-177.27 654,-177.78 689.42,-180.91 698.55,-180.51 734,-177.78 737.31,-177.53 740.67,-177.23 744.06,-176.89"/>
<polygon fill="blue" stroke="blue" points="744.74,-180.34 754.31,-175.78 743.99,-173.38 744.74,-180.34"/>
<text text-anchor="middle" x="694" y="-183.58" font-family="Arial" font-size="14.00">ManualColor</text>
</g>
<!-- AutoOn -->
<g id="node6" class="node">
<title>AutoOn</title>
<polygon fill="#ffbb33" stroke="red" points="906,-66.78 771,-66.78 771,-28.78 906,-28.78 906,-66.78"/>
<text text-anchor="middle" x="838.5" y="-51.58" font-family="Arial" font-size="14.00">AutoOn</text>
<text text-anchor="middle" x="838.5" y="-36.58" font-family="Arial" font-size="14.00">[_] / auto_on_action</text>
</g>
<!-- Off&#45;&gt;AutoOn -->
<g id="edge8" class="edge">
<title>Off&#45;&gt;AutoOn</title>
<path fill="none" stroke="blue" d="M605.03,-142.58C620.33,-135.56 637.89,-127.65 654,-120.78 695.26,-103.19 742.26,-84.52 778.37,-70.46"/>
<polygon fill="blue" stroke="blue" points="779.72,-73.69 787.78,-66.81 777.19,-67.16 779.72,-73.69"/>
<text text-anchor="middle" x="694" y="-124.58" font-family="Arial" font-size="14.00">AutoOn</text>
</g>
<!-- ManualMode&#45;&gt;Off -->
<g id="edge4" class="edge">
<title>ManualMode&#45;&gt;Off</title>
<path fill="none" stroke="blue" d="M751.9,-277.32C719.83,-274.93 683.93,-268.53 654,-253.78 624.27,-239.13 598.78,-210.58 582.6,-189.15"/>
<polygon fill="blue" stroke="blue" points="585.39,-187.04 576.66,-181.04 579.74,-191.17 585.39,-187.04"/>
<text text-anchor="middle" x="694" y="-278.58" font-family="Arial" font-size="14.00">TimerCheck</text>
</g>
<!-- ManualMode&#45;&gt;Off -->
<g id="edge5" class="edge">
<title>ManualMode&#45;&gt;Off</title>
<path fill="none" stroke="blue" d="M791.57,-256.64C744.09,-236.85 669.93,-205.94 619.27,-184.82"/>
<polygon fill="blue" stroke="blue" points="620.35,-181.48 609.78,-180.86 617.66,-187.94 620.35,-181.48"/>
<text text-anchor="middle" x="694" y="-235.58" font-family="Arial" font-size="14.00">Off</text>
</g>
<!-- ManualColor&#45;&gt;Off -->
<g id="edge6" class="edge">
<title>ManualColor&#45;&gt;Off</title>
<path fill="none" stroke="blue" d="M754.21,-161.78C720.08,-161.78 680.67,-161.78 646.6,-161.78"/>
<polygon fill="blue" stroke="blue" points="646.22,-158.28 636.22,-161.78 646.22,-165.28 646.22,-158.28"/>
<text text-anchor="middle" x="694" y="-165.58" font-family="Arial" font-size="14.00">TimerCheck</text>
</g>
<!-- ManualColor&#45;&gt;Off -->
<g id="edge7" class="edge">
<title>ManualColor&#45;&gt;Off</title>
<path fill="none" stroke="blue" d="M754.36,-145.16C747.49,-144.2 740.64,-143.39 734,-142.78 698.59,-139.56 689.36,-139.09 654,-142.78 651.34,-143.06 648.64,-143.38 645.92,-143.74"/>
<polygon fill="blue" stroke="blue" points="645.38,-140.28 636,-145.2 646.4,-147.21 645.38,-140.28"/>
<text text-anchor="middle" x="694" y="-146.58" font-family="Arial" font-size="14.00">Off</text>
</g>
<!-- AutoOn&#45;&gt;Off -->
<g id="edge2" class="edge">
<title>AutoOn&#45;&gt;Off</title>
<path fill="none" stroke="blue" d="M770.67,-34.64C734.42,-30.75 689.83,-31.39 654,-48.78 617.87,-66.32 591.73,-106.12 577.21,-133.48"/>
<polygon fill="blue" stroke="blue" points="574,-132.08 572.57,-142.58 580.23,-135.27 574,-132.08"/>
<text text-anchor="middle" x="694" y="-52.58" font-family="Arial" font-size="14.00">TimerCheck</text>
</g>
<!-- AutoOn&#45;&gt;Off -->
<g id="edge3" class="edge">
<title>AutoOn&#45;&gt;Off</title>
<path fill="none" stroke="blue" d="M804.18,-28.73C765.65,-9.45 701.45,13.99 654,-12.78 608.6,-38.4 583.53,-97.13 571.99,-132.73"/>
<polygon fill="blue" stroke="blue" points="568.57,-131.95 568.97,-142.54 575.26,-134.02 568.57,-131.95"/>
<text text-anchor="middle" x="694" y="-16.58" font-family="Arial" font-size="14.00">Off</text>
</g>
<!-- TimerCheck -->
<g id="node7" class="node">
<title>TimerCheck</title>
<polygon fill="none" stroke="black" points="344,-235.78 0,-235.78 0,-197.78 344,-197.78 344,-235.78"/>
<text text-anchor="middle" x="172" y="-220.58" font-family="Arial" font-size="14.00">TimerCheck</text>
<text text-anchor="middle" x="172" y="-205.58" font-family="Arial" font-size="14.00">[manual_color_timer_check_guard] / mc_to_off_action</text>
</g>
<!-- Init -->
<g id="node8" class="node">
<title>Init</title>
<polygon fill="none" stroke="black" points="224,-291.78 120,-291.78 120,-253.78 224,-253.78 224,-291.78"/>
<text text-anchor="middle" x="172" y="-276.58" font-family="Arial" font-size="14.00">Init</text>
<text text-anchor="middle" x="172" y="-261.58" font-family="Arial" font-size="14.00">[_] / init_action</text>
</g>
</g>
</svg>
